<svg width="16" height="16" viewBox="0 0 16 16" fill="none" xmlns="http://www.w3.org/2000/svg">
<path d="M15.7315 1.55643C16.0873 1.20056 16.0873 0.623586 15.7315 0.267718C15.3756 -0.0881507 14.7986 -0.0881507 14.4427 0.267718L7.99999 6.71047L1.55726 0.267729C1.20139 -0.0881396 0.624411 -0.0881399 0.268543 0.267728C-0.087325 0.623597 -0.087325 1.20057 0.268543 1.55644L6.71128 7.99918L0.266901 14.4436C-0.0889669 14.7994 -0.0889672 15.3764 0.266901 15.7323C0.622769 16.0881 1.19975 16.0881 1.55561 15.7323L7.99999 9.28789L14.4444 15.7323C14.8003 16.0882 15.3772 16.0882 15.7331 15.7323C16.089 15.3764 16.089 14.7994 15.7331 14.4436L9.28871 7.99918L15.7315 1.55643Z" fill="black"/>
</svg>
