<svg width="30" height="33" viewBox="0 0 30 33" fill="none" xmlns="http://www.w3.org/2000/svg">
<path d="M19.0385 9.57676V8.57676V9.57676ZM10.9618 9.57676V10.5768V9.57676ZM26.5385 28.0384H27.5385V28.0384L26.5385 28.0384ZM23.077 31.4999V32.4999V31.4999ZM6.92349 31.4999V32.4999V31.4999ZM3.46202 28.0384H4.46202V28.0384L3.46202 28.0384ZM14.0001 31.5C14.0001 32.0523 14.4478 32.5 15.0001 32.5C15.5524 32.5 16.0001 32.0523 16.0001 31.5H14.0001ZM14.0001 5.53838V9.57676H16.0001V5.53838H14.0001ZM15.0001 10.5768H19.0385V8.57676H15.0001V10.5768ZM19.0385 10.5768C20.035 10.5768 21.0091 10.2813 21.8376 9.72764L20.7265 8.06471C20.2268 8.39857 19.6394 8.57676 19.0385 8.57676V10.5768ZM21.8376 9.72764C22.6662 9.17402 23.312 8.38713 23.6933 7.46649L21.8456 6.70112C21.6156 7.25631 21.2262 7.73084 20.7265 8.06471L21.8376 9.72764ZM23.6933 7.46649C24.0747 6.54585 24.1744 5.53279 23.98 4.55544L22.0185 4.94562C22.1357 5.53501 22.0755 6.14593 21.8456 6.70112L23.6933 7.46649ZM23.98 4.55544C23.7856 3.5781 23.3058 2.68034 22.6011 1.97571L21.1869 3.38992C21.6118 3.81485 21.9012 4.35624 22.0185 4.94562L23.98 4.55544ZM22.6011 1.97571C21.8965 1.27108 20.9988 0.79122 20.0214 0.596813L19.6312 2.55838C20.2206 2.67562 20.762 2.965 21.1869 3.38992L22.6011 1.97571ZM20.0214 0.596813C19.0441 0.402406 18.031 0.502183 17.1104 0.883526L17.8757 2.73128C18.4309 2.50132 19.0418 2.44115 19.6312 2.55838L20.0214 0.596813ZM17.1104 0.883526C16.1897 1.26487 15.4028 1.91065 14.8492 2.73921L16.5121 3.85035C16.846 3.35069 17.3205 2.96125 17.8757 2.73128L17.1104 0.883526ZM14.8492 2.73921C14.2956 3.56777 14.0001 4.54189 14.0001 5.53838H16.0001C16.0001 4.93745 16.1783 4.35001 16.5121 3.85035L14.8492 2.73921ZM14.0001 5.53838C14.0001 5.54056 14.0001 5.54275 14.0001 5.54494C14.0001 5.54713 14.0001 5.54933 14.0001 5.55153C14.0001 5.55374 14.0001 5.55595 14.0001 5.55817C14.0001 5.56038 14.0001 5.56261 14.0001 5.56484C14.0001 5.56707 14.0001 5.56931 14.0001 5.57156C14.0001 5.5738 14.0001 5.57606 14.0001 5.57832C14.0001 5.58057 14.0001 5.58284 14.0001 5.58511C14.0001 5.58739 14.0001 5.58966 14.0001 5.59195C14.0001 5.59424 14.0001 5.59653 14.0001 5.59883C14.0001 5.60113 14.0001 5.60343 14.0001 5.60574C14.0001 5.60806 14.0001 5.61037 14.0001 5.6127C14.0001 5.61502 14.0001 5.61735 14.0001 5.61969C14.0001 5.62203 14.0001 5.62438 14.0001 5.62673C14.0001 5.62908 14.0001 5.63143 14.0001 5.6338C14.0001 5.63616 14.0001 5.63853 14.0001 5.64091C14.0001 5.64329 14.0001 5.64567 14.0001 5.64806C14.0001 5.65045 14.0001 5.65284 14.0001 5.65524C14.0001 5.65765 14.0001 5.66005 14.0001 5.66247C14.0001 5.66488 14.0001 5.6673 14.0001 5.66973C14.0001 5.67216 14.0001 5.67459 14.0001 5.67703C14.0001 5.67947 14.0001 5.68192 14.0001 5.68437C14.0001 5.68682 14.0001 5.68928 14.0001 5.69174C14.0001 5.6942 14.0001 5.69668 14.0001 5.69915C14.0001 5.70163 14.0001 5.70411 14.0001 5.7066C14.0001 5.70909 14.0001 5.71158 14.0001 5.71408C14.0001 5.71658 14.0001 5.71909 14.0001 5.7216C14.0001 5.72411 14.0001 5.72663 14.0001 5.72916C14.0001 5.73168 14.0001 5.73421 14.0001 5.73675C14.0001 5.73928 14.0001 5.74183 14.0001 5.74437C14.0001 5.74692 14.0001 5.74948 14.0001 5.75204C14.0001 5.75459 14.0001 5.75716 14.0001 5.75973C14.0001 5.7623 14.0001 5.76488 14.0001 5.76746C14.0001 5.77005 14.0001 5.77263 14.0001 5.77523C14.0001 5.77782 14.0001 5.78042 14.0001 5.78303C14.0001 5.78564 14.0001 5.78825 14.0001 5.79086C14.0001 5.79348 14.0001 5.7961 14.0001 5.79873C14.0001 5.80136 14.0001 5.804 14.0001 5.80664C14.0001 5.80928 14.0001 5.81192 14.0001 5.81457C14.0001 5.81722 14.0001 5.81988 14.0001 5.82254C14.0001 5.8252 14.0001 5.82787 14.0001 5.83054C14.0001 5.83322 14.0001 5.8359 14.0001 5.83858C14.0001 5.84126 14.0001 5.84395 14.0001 5.84665C14.0001 5.84934 14.0001 5.85204 14.0001 5.85475C14.0001 5.85745 14.0001 5.86017 14.0001 5.86288C14.0001 5.8656 14.0001 5.86832 14.0001 5.87105C14.0001 5.87377 14.0001 5.87651 14.0001 5.87924C14.0001 5.88198 14.0001 5.88472 14.0001 5.88747C14.0001 5.89022 14.0001 5.89297 14.0001 5.89573C14.0001 5.89849 14.0001 5.90126 14.0001 5.90402C14.0001 5.90679 14.0001 5.90957 14.0001 5.91235C14.0001 5.91513 14.0001 5.91791 14.0001 5.9207C14.0001 5.92349 14.0001 5.92628 14.0001 5.92908C14.0001 5.93188 14.0001 5.93469 14.0001 5.9375C14.0001 5.94031 14.0001 5.94312 14.0001 5.94594C14.0001 5.94876 14.0001 5.95159 14.0001 5.95442C14.0001 5.95725 14.0001 5.96008 14.0001 5.96292C14.0001 5.96576 14.0001 5.96861 14.0001 5.97146C14.0001 5.9743 14.0001 5.97716 14.0001 5.98002C14.0001 5.98288 14.0001 5.98574 14.0001 5.98861C14.0001 5.99148 14.0001 5.99435 14.0001 5.99723C14.0001 6.00011 14.0001 6.00299 14.0001 6.00588C14.0001 6.00877 14.0001 6.01166 14.0001 6.01456C14.0001 6.01746 14.0001 6.02036 14.0001 6.02327C14.0001 6.02617 14.0001 6.02908 14.0001 6.032C14.0001 6.03492 14.0001 6.03784 14.0001 6.04076C14.0001 6.04369 14.0001 6.04662 14.0001 6.04955C14.0001 6.05249 14.0001 6.05543 14.0001 6.05837C14.0001 6.06131 14.0001 6.06426 14.0001 6.06722C14.0001 6.07017 14.0001 6.07313 14.0001 6.07609C14.0001 6.07905 14.0001 6.08202 14.0001 6.08499C14.0001 6.08796 14.0001 6.09093 14.0001 6.09391C14.0001 6.09689 14.0001 6.09987 14.0001 6.10286C14.0001 6.10585 14.0001 6.10884 14.0001 6.11184C14.0001 6.11484 14.0001 6.11784 14.0001 6.12084C14.0001 6.12385 14.0001 6.12686 14.0001 6.12987C14.0001 6.13289 14.0001 6.13591 14.0001 6.13893C14.0001 6.14195 14.0001 6.14498 14.0001 6.14801C14.0001 6.15104 14.0001 6.15408 14.0001 6.15711C14.0001 6.16015 14.0001 6.1632 14.0001 6.16624C14.0001 6.16929 14.0001 6.17234 14.0001 6.1754C14.0001 6.17846 14.0001 6.18152 14.0001 6.18458C14.0001 6.18764 14.0001 6.19071 14.0001 6.19378C14.0001 6.19685 14.0001 6.19993 14.0001 6.20301C14.0001 6.20609 14.0001 6.20917 14.0001 6.21226C14.0001 6.21535 14.0001 6.21844 14.0001 6.22154C14.0001 6.22463 14.0001 6.22773 14.0001 6.23084C14.0001 6.23394 14.0001 6.23705 14.0001 6.24016C14.0001 6.24327 14.0001 6.24638 14.0001 6.2495C14.0001 6.25262 14.0001 6.25574 14.0001 6.25887C14.0001 6.262 14.0001 6.26513 14.0001 6.26826C14.0001 6.27139 14.0001 6.27453 14.0001 6.27767C14.0001 6.28081 14.0001 6.28396 14.0001 6.28711C14.0001 6.29026 14.0001 6.29341 14.0001 6.29656C14.0001 6.29972 14.0001 6.30288 14.0001 6.30604C14.0001 6.30921 14.0001 6.31237 14.0001 6.31554C14.0001 6.31871 14.0001 6.32189 14.0001 6.32506C14.0001 6.32824 14.0001 6.33142 14.0001 6.33461C14.0001 6.33779 14.0001 6.34098 14.0001 6.34417C14.0001 6.34736 14.0001 6.35055 14.0001 6.35375C14.0001 6.35695 14.0001 6.36015 14.0001 6.36336C14.0001 6.36656 14.0001 6.36977 14.0001 6.37298C14.0001 6.37619 14.0001 6.37941 14.0001 6.38263C14.0001 6.38584 14.0001 6.38907 14.0001 6.39229C14.0001 6.39552 14.0001 6.39874 14.0001 6.40197C14.0001 6.40521 14.0001 6.40844 14.0001 6.41168C14.0001 6.41492 14.0001 6.41816 14.0001 6.4214C14.0001 6.42464 14.0001 6.42789 14.0001 6.43114C14.0001 6.43439 14.0001 6.43765 14.0001 6.4409C14.0001 6.44416 14.0001 6.44742 14.0001 6.45068C14.0001 6.45394 14.0001 6.45721 14.0001 6.46048C14.0001 6.46375 14.0001 6.46702 14.0001 6.47029C14.0001 6.47357 14.0001 6.47685 14.0001 6.48013C14.0001 6.48341 14.0001 6.48669 14.0001 6.48998C14.0001 6.49326 14.0001 6.49655 14.0001 6.49985C14.0001 6.50314 14.0001 6.50643 14.0001 6.50973C14.0001 6.51303 14.0001 6.51633 14.0001 6.51963C14.0001 6.52294 14.0001 6.52624 14.0001 6.52955C14.0001 6.53286 14.0001 6.53618 14.0001 6.53949C14.0001 6.5428 14.0001 6.54612 14.0001 6.54944C14.0001 6.55276 14.0001 6.55609 14.0001 6.55941C14.0001 6.56274 14.0001 6.56607 14.0001 6.5694C14.0001 6.57273 14.0001 6.57606 14.0001 6.5794C14.0001 6.58273 14.0001 6.58607 14.0001 6.58941C14.0001 6.59275 14.0001 6.5961 14.0001 6.59944C14.0001 6.60279 14.0001 6.60614 14.0001 6.60949C14.0001 6.61284 14.0001 6.6162 14.0001 6.61955C14.0001 6.62291 14.0001 6.62627 14.0001 6.62963C14.0001 6.63299 14.0001 6.63635 14.0001 6.63972C14.0001 6.64309 14.0001 6.64646 14.0001 6.64983C14.0001 6.6532 14.0001 6.65657 14.0001 6.65995C14.0001 6.66332 14.0001 6.6667 14.0001 6.67008C14.0001 6.67346 14.0001 6.67684 14.0001 6.68023C14.0001 6.68361 14.0001 6.687 14.0001 6.69039C14.0001 6.69378 14.0001 6.69717 14.0001 6.70056C14.0001 6.70395 14.0001 6.70735 14.0001 6.71075C14.0001 6.71415 14.0001 6.71755 14.0001 6.72095C14.0001 6.72435 14.0001 6.72775 14.0001 6.73116C14.0001 6.73457 14.0001 6.73797 14.0001 6.74138C14.0001 6.74479 14.0001 6.74821 14.0001 6.75162C14.0001 6.75504 14.0001 6.75845 14.0001 6.76187C14.0001 6.76529 14.0001 6.76871 14.0001 6.77213C14.0001 6.77555 14.0001 6.77898 14.0001 6.7824C14.0001 6.78583 14.0001 6.78926 14.0001 6.79269C14.0001 6.79612 14.0001 6.79955 14.0001 6.80298C14.0001 6.80641 14.0001 6.80985 14.0001 6.81329C14.0001 6.81672 14.0001 6.82016 14.0001 6.8236C14.0001 6.82704 14.0001 6.83049 14.0001 6.83393C14.0001 6.83737 14.0001 6.84082 14.0001 6.84427C14.0001 6.84771 14.0001 6.85116 14.0001 6.85462C14.0001 6.85807 14.0001 6.86152 14.0001 6.86497C14.0001 6.86843 14.0001 6.87188 14.0001 6.87534C14.0001 6.8788 14.0001 6.88226 14.0001 6.88572C14.0001 6.88918 14.0001 6.89264 14.0001 6.8961C14.0001 6.89956 14.0001 6.90303 14.0001 6.9065C14.0001 6.90996 14.0001 6.91343 14.0001 6.9169C14.0001 6.92037 14.0001 6.92384 14.0001 6.92731C14.0001 6.93078 14.0001 6.93426 14.0001 6.93773C14.0001 6.94121 14.0001 6.94468 14.0001 6.94816C14.0001 6.95164 14.0001 6.95512 14.0001 6.9586C14.0001 6.96208 14.0001 6.96556 14.0001 6.96904C14.0001 6.97252 14.0001 6.97601 14.0001 6.97949C14.0001 6.98298 14.0001 6.98646 14.0001 6.98995C14.0001 6.99344 14.0001 6.99693 14.0001 7.00042C14.0001 7.00391 14.0001 7.0074 14.0001 7.01089C14.0001 7.01438 14.0001 7.01788 14.0001 7.02137C14.0001 7.02487 14.0001 7.02836 14.0001 7.03186C14.0001 7.03535 14.0001 7.03885 14.0001 7.04235C14.0001 7.04585 14.0001 7.04935 14.0001 7.05285C14.0001 7.05635 14.0001 7.05985 14.0001 7.06335C14.0001 7.06686 14.0001 7.07036 14.0001 7.07386C14.0001 7.07737 14.0001 7.08087 14.0001 7.08438C14.0001 7.08789 14.0001 7.09139 14.0001 7.0949C14.0001 7.09841 14.0001 7.10192 14.0001 7.10543C14.0001 7.10894 14.0001 7.11245 14.0001 7.11596C14.0001 7.11947 14.0001 7.12298 14.0001 7.12649C14.0001 7.13001 14.0001 7.13352 14.0001 7.13703C14.0001 7.14055 14.0001 7.14406 14.0001 7.14758C14.0001 7.15109 14.0001 7.15461 14.0001 7.15812C14.0001 7.16164 14.0001 7.16516 14.0001 7.16868C14.0001 7.17219 14.0001 7.17571 14.0001 7.17923C14.0001 7.18275 14.0001 7.18627 14.0001 7.18979C14.0001 7.19331 14.0001 7.19683 14.0001 7.20035C14.0001 7.20387 14.0001 7.20739 14.0001 7.21092C14.0001 7.21444 14.0001 7.21796 14.0001 7.22148C14.0001 7.22501 14.0001 7.22853 14.0001 7.23205C14.0001 7.23558 14.0001 7.2391 14.0001 7.24262C14.0001 7.24615 14.0001 7.24967 14.0001 7.2532C14.0001 7.25672 14.0001 7.26025 14.0001 7.26377C14.0001 7.2673 14.0001 7.27082 14.0001 7.27435C14.0001 7.27788 14.0001 7.2814 14.0001 7.28493C14.0001 7.28846 14.0001 7.29198 14.0001 7.29551C14.0001 7.29904 14.0001 7.30256 14.0001 7.30609C14.0001 7.30962 14.0001 7.31315 14.0001 7.31667C14.0001 7.3202 14.0001 7.32373 14.0001 7.32725C14.0001 7.33078 14.0001 7.33431 14.0001 7.33784C14.0001 7.34136 14.0001 7.34489 14.0001 7.34842C14.0001 7.35195 14.0001 7.35548 14.0001 7.359C14.0001 7.36253 14.0001 7.36606 14.0001 7.36959C14.0001 7.37311 14.0001 7.37664 14.0001 7.38017C14.0001 7.38369 14.0001 7.38722 14.0001 7.39075C14.0001 7.39428 14.0001 7.3978 14.0001 7.40133C14.0001 7.40486 14.0001 7.40838 14.0001 7.41191C14.0001 7.41543 14.0001 7.41896 14.0001 7.42249C14.0001 7.42601 14.0001 7.42954 14.0001 7.43306C14.0001 7.43659 14.0001 7.44011 14.0001 7.44364C14.0001 7.44716 14.0001 7.45069 14.0001 7.45421C14.0001 7.45773 14.0001 7.46126 14.0001 7.46478C14.0001 7.4683 14.0001 7.47183 14.0001 7.47535C14.0001 7.47887 14.0001 7.48239 14.0001 7.48591C14.0001 7.48944 14.0001 7.49296 14.0001 7.49648C14.0001 7.5 14.0001 7.50352 14.0001 7.50704C14.0001 7.51056 14.0001 7.51407 14.0001 7.51759C14.0001 7.52111 14.0001 7.52463 14.0001 7.52815C14.0001 7.53166 14.0001 7.53518 14.0001 7.53869C14.0001 7.54221 14.0001 7.54573 14.0001 7.54924C14.0001 7.55275 14.0001 7.55627 14.0001 7.55978C14.0001 7.56329 14.0001 7.56681 14.0001 7.57032C14.0001 7.57383 14.0001 7.57734 14.0001 7.58085C14.0001 7.58436 14.0001 7.58787 14.0001 7.59138C14.0001 7.59489 14.0001 7.59839 14.0001 7.6019C14.0001 7.60541 14.0001 7.60891 14.0001 7.61242C14.0001 7.61592 14.0001 7.61943 14.0001 7.62293C14.0001 7.62643 14.0001 7.62994 14.0001 7.63344C14.0001 7.63694 14.0001 7.64044 14.0001 7.64394C14.0001 7.64744 14.0001 7.65094 14.0001 7.65443C14.0001 7.65793 14.0001 7.66143 14.0001 7.66492C14.0001 7.66842 14.0001 7.67191 14.0001 7.67541C14.0001 7.6789 14.0001 7.68239 14.0001 7.68588C14.0001 7.68937 14.0001 7.69286 14.0001 7.69635C14.0001 7.69984 14.0001 7.70333 14.0001 7.70681C14.0001 7.7103 14.0001 7.71378 14.0001 7.71727C14.0001 7.72075 14.0001 7.72423 14.0001 7.72771C14.0001 7.73119 14.0001 7.73467 14.0001 7.73815C14.0001 7.74163 14.0001 7.74511 14.0001 7.74858C14.0001 7.75206 14.0001 7.75554 14.0001 7.75901C14.0001 7.76248 14.0001 7.76595 14.0001 7.76942C14.0001 7.77289 14.0001 7.77636 14.0001 7.77983C14.0001 7.7833 14.0001 7.78676 14.0001 7.79023C14.0001 7.79369 14.0001 7.79716 14.0001 7.80062C14.0001 7.80408 14.0001 7.80754 14.0001 7.811C14.0001 7.81446 14.0001 7.81791 14.0001 7.82137C14.0001 7.82482 14.0001 7.82828 14.0001 7.83173C14.0001 7.83518 14.0001 7.83863 14.0001 7.84208C14.0001 7.84553 14.0001 7.84897 14.0001 7.85242C14.0001 7.85587 14.0001 7.85931 14.0001 7.86275C14.0001 7.86619 14.0001 7.86963 14.0001 7.87307C14.0001 7.87651 14.0001 7.87995 14.0001 7.88338C14.0001 7.88682 14.0001 7.89025 14.0001 7.89368C14.0001 7.89711 14.0001 7.90054 14.0001 7.90397C14.0001 7.90739 14.0001 7.91082 14.0001 7.91424C14.0001 7.91767 14.0001 7.92109 14.0001 7.92451C14.0001 7.92793 14.0001 7.93135 14.0001 7.93476C14.0001 7.93818 14.0001 7.94159 14.0001 7.945C14.0001 7.94842 14.0001 7.95183 14.0001 7.95523C14.0001 7.95864 14.0001 7.96205 14.0001 7.96545C14.0001 7.96885 14.0001 7.97226 14.0001 7.97565C14.0001 7.97905 14.0001 7.98245 14.0001 7.98585C14.0001 7.98924 14.0001 7.99263 14.0001 7.99603C14.0001 7.99942 14.0001 8.0028 14.0001 8.00619C14.0001 8.00958 14.0001 8.01296 14.0001 8.01634C14.0001 8.01972 14.0001 8.0231 14.0001 8.02648C14.0001 8.02986 14.0001 8.03323 14.0001 8.03661C14.0001 8.03998 14.0001 8.04335 14.0001 8.04672C14.0001 8.05008 14.0001 8.05345 14.0001 8.05681C14.0001 8.06018 14.0001 8.06354 14.0001 8.0669C14.0001 8.07025 14.0001 8.07361 14.0001 8.07696C14.0001 8.08032 14.0001 8.08367 14.0001 8.08701C14.0001 8.09036 14.0001 8.09371 14.0001 8.09705C14.0001 8.1004 14.0001 8.10374 14.0001 8.10707C14.0001 8.11041 14.0001 8.11375 14.0001 8.11708C14.0001 8.12041 14.0001 8.12374 14.0001 8.12707C14.0001 8.1304 14.0001 8.13372 14.0001 8.13705C14.0001 8.14037 14.0001 8.14369 14.0001 8.14701C14.0001 8.15032 14.0001 8.15364 14.0001 8.15695C14.0001 8.16026 14.0001 8.16357 14.0001 8.16687C14.0001 8.17018 14.0001 8.17348 14.0001 8.17678C14.0001 8.18008 14.0001 8.18338 14.0001 8.18667C14.0001 8.18997 14.0001 8.19326 14.0001 8.19655C14.0001 8.19984 14.0001 8.20312 14.0001 8.20641C14.0001 8.20969 14.0001 8.21297 14.0001 8.21625C14.0001 8.21952 14.0001 8.2228 14.0001 8.22607C14.0001 8.22934 14.0001 8.23261 14.0001 8.23587C14.0001 8.23914 14.0001 8.2424 14.0001 8.24566C14.0001 8.24892 14.0001 8.25217 14.0001 8.25542C14.0001 8.25868 14.0001 8.26193 14.0001 8.26517C14.0001 8.26842 14.0001 8.27166 14.0001 8.2749C14.0001 8.27814 14.0001 8.28138 14.0001 8.28461C14.0001 8.28785 14.0001 8.29108 14.0001 8.2943C14.0001 8.29753 14.0001 8.30076 14.0001 8.30398C14.0001 8.3072 14.0001 8.31041 14.0001 8.31363C14.0001 8.31684 14.0001 8.32005 14.0001 8.32326C14.0001 8.32647 14.0001 8.32967 14.0001 8.33287C14.0001 8.33607 14.0001 8.33927 14.0001 8.34246C14.0001 8.34566 14.0001 8.34885 14.0001 8.35203C14.0001 8.35522 14.0001 8.35841 14.0001 8.36158C14.0001 8.36476 14.0001 8.36794 14.0001 8.37111C14.0001 8.37429 14.0001 8.37746 14.0001 8.38062C14.0001 8.38379 14.0001 8.38695 14.0001 8.39011C14.0001 8.39327 14.0001 8.39642 14.0001 8.39957C14.0001 8.40272 14.0001 8.40587 14.0001 8.40902C14.0001 8.41216 14.0001 8.4153 14.0001 8.41844C14.0001 8.42157 14.0001 8.42471 14.0001 8.42783C14.0001 8.43096 14.0001 8.43409 14.0001 8.43721C14.0001 8.44033 14.0001 8.44345 14.0001 8.44656C14.0001 8.44968 14.0001 8.45279 14.0001 8.45589C14.0001 8.459 14.0001 8.4621 14.0001 8.4652C14.0001 8.4683 14.0001 8.4714 14.0001 8.47449C14.0001 8.47758 14.0001 8.48066 14.0001 8.48375C14.0001 8.48683 14.0001 8.48991 14.0001 8.49298C14.0001 8.49606 14.0001 8.49913 14.0001 8.5022C14.0001 8.50526 14.0001 8.50833 14.0001 8.51138C14.0001 8.51444 14.0001 8.5175 14.0001 8.52055C14.0001 8.5236 14.0001 8.52665 14.0001 8.52969C14.0001 8.53273 14.0001 8.53577 14.0001 8.5388C14.0001 8.54184 14.0001 8.54487 14.0001 8.54789C14.0001 8.55092 14.0001 8.55394 14.0001 8.55696C14.0001 8.55997 14.0001 8.56299 14.0001 8.566C14.0001 8.56901 14.0001 8.57201 14.0001 8.57501C14.0001 8.57801 14.0001 8.58101 14.0001 8.584C14.0001 8.58699 14.0001 8.58998 14.0001 8.59296C14.0001 8.59594 14.0001 8.59892 14.0001 8.60189C14.0001 8.60487 14.0001 8.60784 14.0001 8.6108C14.0001 8.61377 14.0001 8.61673 14.0001 8.61968C14.0001 8.62264 14.0001 8.62559 14.0001 8.62854C14.0001 8.63149 14.0001 8.63443 14.0001 8.63737C14.0001 8.6403 14.0001 8.64324 14.0001 8.64617C14.0001 8.6491 14.0001 8.65202 14.0001 8.65494C14.0001 8.65786 14.0001 8.66077 14.0001 8.66368C14.0001 8.6666 14.0001 8.6695 14.0001 8.6724C14.0001 8.6753 14.0001 8.6782 14.0001 8.68109C14.0001 8.68398 14.0001 8.68687 14.0001 8.68975C14.0001 8.69263 14.0001 8.69551 14.0001 8.69838C14.0001 8.70126 14.0001 8.70412 14.0001 8.70699C14.0001 8.70985 14.0001 8.71271 14.0001 8.71556C14.0001 8.71841 14.0001 8.72126 14.0001 8.7241C14.0001 8.72695 14.0001 8.72979 14.0001 8.73262C14.0001 8.73545 14.0001 8.73828 14.0001 8.74111C14.0001 8.74393 14.0001 8.74675 14.0001 8.74956C14.0001 8.75238 14.0001 8.75518 14.0001 8.75799C14.0001 8.76079 14.0001 8.76359 14.0001 8.76638C14.0001 8.76918 14.0001 8.77196 14.0001 8.77475C14.0001 8.77753 14.0001 8.78031 14.0001 8.78308C14.0001 8.78585 14.0001 8.78862 14.0001 8.79138C14.0001 8.79415 14.0001 8.7969 14.0001 8.79966C14.0001 8.80241 14.0001 8.80515 14.0001 8.8079C14.0001 8.81064 14.0001 8.81337 14.0001 8.81611C14.0001 8.81884 14.0001 8.82156 14.0001 8.82428C14.0001 8.827 14.0001 8.82972 14.0001 8.83243C14.0001 8.83514 14.0001 8.83784 14.0001 8.84054C14.0001 8.84324 14.0001 8.84593 14.0001 8.84862C14.0001 8.85131 14.0001 8.85399 14.0001 8.85667C14.0001 8.85935 14.0001 8.86202 14.0001 8.86468C14.0001 8.86735 14.0001 8.87001 14.0001 8.87267C14.0001 8.87532 14.0001 8.87797 14.0001 8.88061C14.0001 8.88326 14.0001 8.8859 14.0001 8.88853C14.0001 8.89116 14.0001 8.89379 14.0001 8.89641C14.0001 8.89903 14.0001 8.90165 14.0001 8.90426C14.0001 8.90687 14.0001 8.90947 14.0001 8.91207C14.0001 8.91467 14.0001 8.91726 14.0001 8.91985C14.0001 8.92244 14.0001 8.92502 14.0001 8.92759C14.0001 8.93017 14.0001 8.93274 14.0001 8.9353C14.0001 8.93787 14.0001 8.94043 14.0001 8.94298C14.0001 8.94553 14.0001 8.94808 14.0001 8.95062C14.0001 8.95316 14.0001 8.95569 14.0001 8.95822C14.0001 8.96075 14.0001 8.96327 14.0001 8.96579C14.0001 8.96831 14.0001 8.97082 14.0001 8.97332C14.0001 8.97583 14.0001 8.97833 14.0001 8.98082C14.0001 8.98331 14.0001 8.9858 14.0001 8.98828C14.0001 8.99076 14.0001 8.99324 14.0001 8.99571C14.0001 8.99817 14.0001 9.00064 14.0001 9.00309C14.0001 9.00555 14.0001 9.008 14.0001 9.01044C14.0001 9.01289 14.0001 9.01533 14.0001 9.01776C14.0001 9.02019 14.0001 9.02261 14.0001 9.02503C14.0001 9.02745 14.0001 9.02986 14.0001 9.03227C14.0001 9.03468 14.0001 9.03708 14.0001 9.03947C14.0001 9.04187 14.0001 9.04425 14.0001 9.04664C14.0001 9.04902 14.0001 9.05139 14.0001 9.05376C14.0001 9.05613 14.0001 9.05849 14.0001 9.06085C14.0001 9.0632 14.0001 9.06555 14.0001 9.06789C14.0001 9.07024 14.0001 9.07257 14.0001 9.0749C14.0001 9.07723 14.0001 9.07956 14.0001 9.08187C14.0001 9.08419 14.0001 9.0865 14.0001 9.0888C14.0001 9.09111 14.0001 9.09341 14.0001 9.0957C14.0001 9.09799 14.0001 9.10027 14.0001 9.10255C14.0001 9.10483 14.0001 9.1071 14.0001 9.10936C14.0001 9.11162 14.0001 9.11388 14.0001 9.11613C14.0001 9.11838 14.0001 9.12063 14.0001 9.12286C14.0001 9.1251 14.0001 9.12733 14.0001 9.12955C14.0001 9.13178 14.0001 9.134 14.0001 9.13621C14.0001 9.13842 14.0001 9.14062 14.0001 9.14282C14.0001 9.14501 14.0001 9.1472 14.0001 9.14938C14.0001 9.15157 14.0001 9.15374 14.0001 9.15591C14.0001 9.15808 14.0001 9.16024 14.0001 9.1624C14.0001 9.16455 14.0001 9.1667 14.0001 9.16884C14.0001 9.17098 14.0001 9.17312 14.0001 9.17524C14.0001 9.17737 14.0001 9.17949 14.0001 9.1816C14.0001 9.18372 14.0001 9.18582 14.0001 9.18792C14.0001 9.19002 14.0001 9.19211 14.0001 9.19419C14.0001 9.19628 14.0001 9.19836 14.0001 9.20043C14.0001 9.2025 14.0001 9.20456 14.0001 9.20662C14.0001 9.20867 14.0001 9.21072 14.0001 9.21276C14.0001 9.2148 14.0001 9.21684 14.0001 9.21886C14.0001 9.22089 14.0001 9.22291 14.0001 9.22492C14.0001 9.22694 14.0001 9.22894 14.0001 9.23094C14.0001 9.23294 14.0001 9.23493 14.0001 9.23691C14.0001 9.23889 14.0001 9.24087 14.0001 9.24284C14.0001 9.2448 14.0001 9.24676 14.0001 9.24872C14.0001 9.25067 14.0001 9.25262 14.0001 9.25456C14.0001 9.25649 14.0001 9.25842 14.0001 9.26035C14.0001 9.26227 14.0001 9.26419 14.0001 9.2661C14.0001 9.268 14.0001 9.2699 14.0001 9.2718C14.0001 9.27369 14.0001 9.27558 14.0001 9.27745C14.0001 9.27933 14.0001 9.2812 14.0001 9.28306C14.0001 9.28493 14.0001 9.28678 14.0001 9.28863C14.0001 9.29048 14.0001 9.29232 14.0001 9.29415C14.0001 9.29598 14.0001 9.2978 14.0001 9.29962C14.0001 9.30144 14.0001 9.30324 14.0001 9.30505C14.0001 9.30685 14.0001 9.30864 14.0001 9.31042C14.0001 9.31221 14.0001 9.31399 14.0001 9.31576C14.0001 9.31753 14.0001 9.31929 14.0001 9.32104C14.0001 9.32279 14.0001 9.32454 14.0001 9.32628C14.0001 9.32802 14.0001 9.32974 14.0001 9.33147C14.0001 9.33319 14.0001 9.3349 14.0001 9.33661C14.0001 9.33831 14.0001 9.34001 14.0001 9.3417C14.0001 9.34339 14.0001 9.34507 14.0001 9.34675C14.0001 9.34842 14.0001 9.35009 14.0001 9.35174C14.0001 9.3534 14.0001 9.35505 14.0001 9.35669C14.0001 9.35833 14.0001 9.35997 14.0001 9.36159C14.0001 9.36321 14.0001 9.36483 14.0001 9.36644C14.0001 9.36805 14.0001 9.36965 14.0001 9.37124C14.0001 9.37283 14.0001 9.37442 14.0001 9.37599C14.0001 9.37757 14.0001 9.37913 14.0001 9.38069C14.0001 9.38225 14.0001 9.3838 14.0001 9.38534C14.0001 9.38689 14.0001 9.38842 14.0001 9.38994C14.0001 9.39147 14.0001 9.39299 14.0001 9.3945C14.0001 9.396 14.0001 9.3975 14.0001 9.39899C14.0001 9.40049 14.0001 9.40197 14.0001 9.40344C14.0001 9.40492 14.0001 9.40638 14.0001 9.40784C14.0001 9.4093 14.0001 9.41075 14.0001 9.41219C14.0001 9.41363 14.0001 9.41506 14.0001 9.41648C14.0001 9.41791 14.0001 9.41932 14.0001 9.42073C14.0001 9.42213 14.0001 9.42353 14.0001 9.42492C14.0001 9.42631 14.0001 9.42769 14.0001 9.42906C14.0001 9.43043 14.0001 9.43179 14.0001 9.43315C14.0001 9.4345 14.0001 9.43584 14.0001 9.43718C14.0001 9.43852 14.0001 9.43984 14.0001 9.44116C14.0001 9.44248 14.0001 9.44379 14.0001 9.44509C14.0001 9.44639 14.0001 9.44768 14.0001 9.44897C14.0001 9.45025 14.0001 9.45153 14.0001 9.45279C14.0001 9.45406 14.0001 9.45531 14.0001 9.45656C14.0001 9.45781 14.0001 9.45904 14.0001 9.46027C14.0001 9.4615 14.0001 9.46272 14.0001 9.46394C14.0001 9.46515 14.0001 9.46635 14.0001 9.46754C14.0001 9.46874 14.0001 9.46992 14.0001 9.4711C14.0001 9.47227 14.0001 9.47344 14.0001 9.47459C14.0001 9.47575 14.0001 9.4769 14.0001 9.47804C14.0001 9.47917 14.0001 9.4803 14.0001 9.48142C14.0001 9.48254 14.0001 9.48365 14.0001 9.48476C14.0001 9.48586 14.0001 9.48695 14.0001 9.48803C14.0001 9.48912 14.0001 9.49019 14.0001 9.49125C14.0001 9.49232 14.0001 9.49337 14.0001 9.49442C14.0001 9.49547 14.0001 9.4965 14.0001 9.49753C14.0001 9.49856 14.0001 9.49957 14.0001 9.50058C14.0001 9.50159 14.0001 9.50259 14.0001 9.50358C14.0001 9.50457 14.0001 9.50555 14.0001 9.50652C14.0001 9.50749 14.0001 9.50845 14.0001 9.5094C14.0001 9.51035 14.0001 9.5113 14.0001 9.51223C14.0001 9.51316 14.0001 9.51408 14.0001 9.515C14.0001 9.51591 14.0001 9.51681 14.0001 9.51771C14.0001 9.5186 14.0001 9.51948 14.0001 9.52036C14.0001 9.52123 14.0001 9.5221 14.0001 9.52295C14.0001 9.52381 14.0001 9.52465 14.0001 9.52549C14.0001 9.52633 14.0001 9.52715 14.0001 9.52797C14.0001 9.52878 14.0001 9.52959 14.0001 9.53039C14.0001 9.53118 14.0001 9.53197 14.0001 9.53275C14.0001 9.53353 14.0001 9.53429 14.0001 9.53505C14.0001 9.53581 14.0001 9.53655 14.0001 9.53729C14.0001 9.53803 14.0001 9.53876 14.0001 9.53947C14.0001 9.54019 14.0001 9.5409 14.0001 9.5416C14.0001 9.54229 14.0001 9.54298 14.0001 9.54366C14.0001 9.54434 14.0001 9.54501 14.0001 9.54566C14.0001 9.54632 14.0001 9.54697 14.0001 9.54761C14.0001 9.54824 14.0001 9.54887 14.0001 9.54949C14.0001 9.5501 14.0001 9.55071 14.0001 9.55131C14.0001 9.55191 14.0001 9.55249 14.0001 9.55307C14.0001 9.55365 14.0001 9.55421 14.0001 9.55477C14.0001 9.55532 14.0001 9.55587 14.0001 9.55641C14.0001 9.55694 14.0001 9.55747 14.0001 9.55798C14.0001 9.5585 14.0001 9.559 14.0001 9.55949C14.0001 9.55999 14.0001 9.56047 14.0001 9.56095C14.0001 9.56142 14.0001 9.56188 14.0001 9.56234C14.0001 9.56279 14.0001 9.56323 14.0001 9.56366C14.0001 9.5641 14.0001 9.56452 14.0001 9.56493C14.0001 9.56534 14.0001 9.56574 14.0001 9.56613C14.0001 9.56652 14.0001 9.5669 14.0001 9.56727C14.0001 9.56764 14.0001 9.568 14.0001 9.56834C14.0001 9.56869 14.0001 9.56903 14.0001 9.56936C14.0001 9.56968 14.0001 9.57 14.0001 9.5703C14.0001 9.57061 14.0001 9.5709 14.0001 9.57119C14.0001 9.57147 14.0001 9.57174 14.0001 9.57201C14.0001 9.57227 14.0001 9.57252 14.0001 9.57276C14.0001 9.573 14.0001 9.57323 14.0001 9.57345C14.0001 9.57367 14.0001 9.57388 14.0001 9.57408C14.0001 9.57428 14.0001 9.57446 14.0001 9.57464C14.0001 9.57482 14.0001 9.57498 14.0001 9.57514C14.0001 9.57529 14.0001 9.57544 14.0001 9.57557C14.0001 9.5757 14.0001 9.57582 14.0001 9.57593C14.0001 9.57604 14.0001 9.57614 14.0001 9.57623C14.0001 9.57632 14.0001 9.5764 14.0001 9.57646C14.0001 9.57653 14.0001 9.57659 14.0001 9.57663C14.0001 9.57668 14.0001 9.57671 14.0001 9.57673C14.0001 9.57675 14.0001 9.57676 15.0001 9.57676C16.0001 9.57676 16.0001 9.57675 16.0001 9.57673C16.0001 9.57671 16.0001 9.57668 16.0001 9.57663C16.0001 9.57659 16.0001 9.57653 16.0001 9.57646C16.0001 9.5764 16.0001 9.57632 16.0001 9.57623C16.0001 9.57614 16.0001 9.57604 16.0001 9.57593C16.0001 9.57582 16.0001 9.5757 16.0001 9.57557C16.0001 9.57544 16.0001 9.57529 16.0001 9.57514C16.0001 9.57498 16.0001 9.57482 16.0001 9.57464C16.0001 9.57446 16.0001 9.57428 16.0001 9.57408C16.0001 9.57388 16.0001 9.57367 16.0001 9.57345C16.0001 9.57323 16.0001 9.573 16.0001 9.57276C16.0001 9.57252 16.0001 9.57227 16.0001 9.57201C16.0001 9.57174 16.0001 9.57147 16.0001 9.57119C16.0001 9.5709 16.0001 9.57061 16.0001 9.5703C16.0001 9.57 16.0001 9.56968 16.0001 9.56936C16.0001 9.56903 16.0001 9.56869 16.0001 9.56834C16.0001 9.568 16.0001 9.56764 16.0001 9.56727C16.0001 9.5669 16.0001 9.56652 16.0001 9.56613C16.0001 9.56574 16.0001 9.56534 16.0001 9.56493C16.0001 9.56452 16.0001 9.5641 16.0001 9.56366C16.0001 9.56323 16.0001 9.56279 16.0001 9.56234C16.0001 9.56188 16.0001 9.56142 16.0001 9.56095C16.0001 9.56047 16.0001 9.55999 16.0001 9.55949C16.0001 9.559 16.0001 9.5585 16.0001 9.55798C16.0001 9.55747 16.0001 9.55694 16.0001 9.55641C16.0001 9.55587 16.0001 9.55532 16.0001 9.55477C16.0001 9.55421 16.0001 9.55365 16.0001 9.55307C16.0001 9.55249 16.0001 9.55191 16.0001 9.55131C16.0001 9.55071 16.0001 9.5501 16.0001 9.54949C16.0001 9.54887 16.0001 9.54824 16.0001 9.54761C16.0001 9.54697 16.0001 9.54632 16.0001 9.54566C16.0001 9.54501 16.0001 9.54434 16.0001 9.54366C16.0001 9.54298 16.0001 9.54229 16.0001 9.5416C16.0001 9.5409 16.0001 9.54019 16.0001 9.53947C16.0001 9.53876 16.0001 9.53803 16.0001 9.53729C16.0001 9.53655 16.0001 9.53581 16.0001 9.53505C16.0001 9.53429 16.0001 9.53353 16.0001 9.53275C16.0001 9.53197 16.0001 9.53118 16.0001 9.53039C16.0001 9.52959 16.0001 9.52878 16.0001 9.52797C16.0001 9.52715 16.0001 9.52633 16.0001 9.52549C16.0001 9.52465 16.0001 9.52381 16.0001 9.52295C16.0001 9.5221 16.0001 9.52123 16.0001 9.52036C16.0001 9.51948 16.0001 9.5186 16.0001 9.51771C16.0001 9.51681 16.0001 9.51591 16.0001 9.515C16.0001 9.51408 16.0001 9.51316 16.0001 9.51223C16.0001 9.5113 16.0001 9.51035 16.0001 9.5094C16.0001 9.50845 16.0001 9.50749 16.0001 9.50652C16.0001 9.50555 16.0001 9.50457 16.0001 9.50358C16.0001 9.50259 16.0001 9.50159 16.0001 9.50058C16.0001 9.49957 16.0001 9.49856 16.0001 9.49753C16.0001 9.4965 16.0001 9.49547 16.0001 9.49442C16.0001 9.49337 16.0001 9.49232 16.0001 9.49125C16.0001 9.49019 16.0001 9.48912 16.0001 9.48803C16.0001 9.48695 16.0001 9.48586 16.0001 9.48476C16.0001 9.48365 16.0001 9.48254 16.0001 9.48142C16.0001 9.4803 16.0001 9.47917 16.0001 9.47804C16.0001 9.4769 16.0001 9.47575 16.0001 9.47459C16.0001 9.47344 16.0001 9.47227 16.0001 9.4711C16.0001 9.46992 16.0001 9.46874 16.0001 9.46754C16.0001 9.46635 16.0001 9.46515 16.0001 9.46394C16.0001 9.46272 16.0001 9.4615 16.0001 9.46027C16.0001 9.45904 16.0001 9.45781 16.0001 9.45656C16.0001 9.45531 16.0001 9.45406 16.0001 9.45279C16.0001 9.45153 16.0001 9.45025 16.0001 9.44897C16.0001 9.44768 16.0001 9.44639 16.0001 9.44509C16.0001 9.44379 16.0001 9.44248 16.0001 9.44116C16.0001 9.43984 16.0001 9.43852 16.0001 9.43718C16.0001 9.43584 16.0001 9.4345 16.0001 9.43315C16.0001 9.43179 16.0001 9.43043 16.0001 9.42906C16.0001 9.42769 16.0001 9.42631 16.0001 9.42492C16.0001 9.42353 16.0001 9.42213 16.0001 9.42073C16.0001 9.41932 16.0001 9.41791 16.0001 9.41648C16.0001 9.41506 16.0001 9.41363 16.0001 9.41219C16.0001 9.41075 16.0001 9.4093 16.0001 9.40784C16.0001 9.40638 16.0001 9.40492 16.0001 9.40344C16.0001 9.40197 16.0001 9.40049 16.0001 9.39899C16.0001 9.3975 16.0001 9.396 16.0001 9.3945C16.0001 9.39299 16.0001 9.39147 16.0001 9.38994C16.0001 9.38842 16.0001 9.38689 16.0001 9.38534C16.0001 9.3838 16.0001 9.38225 16.0001 9.38069C16.0001 9.37913 16.0001 9.37757 16.0001 9.37599C16.0001 9.37442 16.0001 9.37283 16.0001 9.37124C16.0001 9.36965 16.0001 9.36805 16.0001 9.36644C16.0001 9.36483 16.0001 9.36321 16.0001 9.36159C16.0001 9.35997 16.0001 9.35833 16.0001 9.35669C16.0001 9.35505 16.0001 9.3534 16.0001 9.35174C16.0001 9.35009 16.0001 9.34842 16.0001 9.34675C16.0001 9.34507 16.0001 9.34339 16.0001 9.3417C16.0001 9.34001 16.0001 9.33831 16.0001 9.33661C16.0001 9.3349 16.0001 9.33319 16.0001 9.33147C16.0001 9.32974 16.0001 9.32802 16.0001 9.32628C16.0001 9.32454 16.0001 9.32279 16.0001 9.32104C16.0001 9.31929 16.0001 9.31753 16.0001 9.31576C16.0001 9.31399 16.0001 9.31221 16.0001 9.31042C16.0001 9.30864 16.0001 9.30685 16.0001 9.30505C16.0001 9.30324 16.0001 9.30144 16.0001 9.29962C16.0001 9.2978 16.0001 9.29598 16.0001 9.29415C16.0001 9.29232 16.0001 9.29048 16.0001 9.28863C16.0001 9.28678 16.0001 9.28493 16.0001 9.28306C16.0001 9.2812 16.0001 9.27933 16.0001 9.27745C16.0001 9.27558 16.0001 9.27369 16.0001 9.2718C16.0001 9.2699 16.0001 9.268 16.0001 9.2661C16.0001 9.26419 16.0001 9.26227 16.0001 9.26035C16.0001 9.25842 16.0001 9.25649 16.0001 9.25456C16.0001 9.25262 16.0001 9.25067 16.0001 9.24872C16.0001 9.24676 16.0001 9.2448 16.0001 9.24284C16.0001 9.24087 16.0001 9.23889 16.0001 9.23691C16.0001 9.23493 16.0001 9.23294 16.0001 9.23094C16.0001 9.22894 16.0001 9.22694 16.0001 9.22492C16.0001 9.22291 16.0001 9.22089 16.0001 9.21886C16.0001 9.21684 16.0001 9.2148 16.0001 9.21276C16.0001 9.21072 16.0001 9.20867 16.0001 9.20662C16.0001 9.20456 16.0001 9.2025 16.0001 9.20043C16.0001 9.19836 16.0001 9.19628 16.0001 9.19419C16.0001 9.19211 16.0001 9.19002 16.0001 9.18792C16.0001 9.18582 16.0001 9.18372 16.0001 9.1816C16.0001 9.17949 16.0001 9.17737 16.0001 9.17524C16.0001 9.17312 16.0001 9.17098 16.0001 9.16884C16.0001 9.1667 16.0001 9.16455 16.0001 9.1624C16.0001 9.16024 16.0001 9.15808 16.0001 9.15591C16.0001 9.15374 16.0001 9.15157 16.0001 9.14938C16.0001 9.1472 16.0001 9.14501 16.0001 9.14282C16.0001 9.14062 16.0001 9.13842 16.0001 9.13621C16.0001 9.134 16.0001 9.13178 16.0001 9.12955C16.0001 9.12733 16.0001 9.1251 16.0001 9.12286C16.0001 9.12063 16.0001 9.11838 16.0001 9.11613C16.0001 9.11388 16.0001 9.11162 16.0001 9.10936C16.0001 9.1071 16.0001 9.10483 16.0001 9.10255C16.0001 9.10027 16.0001 9.09799 16.0001 9.0957C16.0001 9.09341 16.0001 9.09111 16.0001 9.0888C16.0001 9.0865 16.0001 9.08419 16.0001 9.08187C16.0001 9.07956 16.0001 9.07723 16.0001 9.0749C16.0001 9.07257 16.0001 9.07024 16.0001 9.06789C16.0001 9.06555 16.0001 9.0632 16.0001 9.06085C16.0001 9.05849 16.0001 9.05613 16.0001 9.05376C16.0001 9.05139 16.0001 9.04902 16.0001 9.04664C16.0001 9.04425 16.0001 9.04187 16.0001 9.03947C16.0001 9.03708 16.0001 9.03468 16.0001 9.03227C16.0001 9.02986 16.0001 9.02745 16.0001 9.02503C16.0001 9.02261 16.0001 9.02019 16.0001 9.01776C16.0001 9.01533 16.0001 9.01289 16.0001 9.01044C16.0001 9.008 16.0001 9.00555 16.0001 9.00309C16.0001 9.00064 16.0001 8.99817 16.0001 8.99571C16.0001 8.99324 16.0001 8.99076 16.0001 8.98828C16.0001 8.9858 16.0001 8.98331 16.0001 8.98082C16.0001 8.97833 16.0001 8.97583 16.0001 8.97332C16.0001 8.97082 16.0001 8.96831 16.0001 8.96579C16.0001 8.96327 16.0001 8.96075 16.0001 8.95822C16.0001 8.95569 16.0001 8.95316 16.0001 8.95062C16.0001 8.94808 16.0001 8.94553 16.0001 8.94298C16.0001 8.94043 16.0001 8.93787 16.0001 8.9353C16.0001 8.93274 16.0001 8.93017 16.0001 8.92759C16.0001 8.92502 16.0001 8.92244 16.0001 8.91985C16.0001 8.91726 16.0001 8.91467 16.0001 8.91207C16.0001 8.90947 16.0001 8.90687 16.0001 8.90426C16.0001 8.90165 16.0001 8.89903 16.0001 8.89641C16.0001 8.89379 16.0001 8.89116 16.0001 8.88853C16.0001 8.8859 16.0001 8.88326 16.0001 8.88061C16.0001 8.87797 16.0001 8.87532 16.0001 8.87267C16.0001 8.87001 16.0001 8.86735 16.0001 8.86468C16.0001 8.86202 16.0001 8.85935 16.0001 8.85667C16.0001 8.85399 16.0001 8.85131 16.0001 8.84862C16.0001 8.84593 16.0001 8.84324 16.0001 8.84054C16.0001 8.83784 16.0001 8.83514 16.0001 8.83243C16.0001 8.82972 16.0001 8.827 16.0001 8.82428C16.0001 8.82156 16.0001 8.81884 16.0001 8.81611C16.0001 8.81337 16.0001 8.81064 16.0001 8.8079C16.0001 8.80515 16.0001 8.80241 16.0001 8.79966C16.0001 8.7969 16.0001 8.79415 16.0001 8.79138C16.0001 8.78862 16.0001 8.78585 16.0001 8.78308C16.0001 8.78031 16.0001 8.77753 16.0001 8.77475C16.0001 8.77196 16.0001 8.76918 16.0001 8.76638C16.0001 8.76359 16.0001 8.76079 16.0001 8.75799C16.0001 8.75518 16.0001 8.75238 16.0001 8.74956C16.0001 8.74675 16.0001 8.74393 16.0001 8.74111C16.0001 8.73828 16.0001 8.73545 16.0001 8.73262C16.0001 8.72979 16.0001 8.72695 16.0001 8.7241C16.0001 8.72126 16.0001 8.71841 16.0001 8.71556C16.0001 8.71271 16.0001 8.70985 16.0001 8.70699C16.0001 8.70412 16.0001 8.70126 16.0001 8.69838C16.0001 8.69551 16.0001 8.69263 16.0001 8.68975C16.0001 8.68687 16.0001 8.68398 16.0001 8.68109C16.0001 8.6782 16.0001 8.6753 16.0001 8.6724C16.0001 8.6695 16.0001 8.6666 16.0001 8.66368C16.0001 8.66077 16.0001 8.65786 16.0001 8.65494C16.0001 8.65202 16.0001 8.6491 16.0001 8.64617C16.0001 8.64324 16.0001 8.6403 16.0001 8.63737C16.0001 8.63443 16.0001 8.63149 16.0001 8.62854C16.0001 8.62559 16.0001 8.62264 16.0001 8.61968C16.0001 8.61673 16.0001 8.61377 16.0001 8.6108C16.0001 8.60784 16.0001 8.60487 16.0001 8.60189C16.0001 8.59892 16.0001 8.59594 16.0001 8.59296C16.0001 8.58998 16.0001 8.58699 16.0001 8.584C16.0001 8.58101 16.0001 8.57801 16.0001 8.57501C16.0001 8.57201 16.0001 8.56901 16.0001 8.566C16.0001 8.56299 16.0001 8.55997 16.0001 8.55696C16.0001 8.55394 16.0001 8.55092 16.0001 8.54789C16.0001 8.54487 16.0001 8.54184 16.0001 8.5388C16.0001 8.53577 16.0001 8.53273 16.0001 8.52969C16.0001 8.52665 16.0001 8.5236 16.0001 8.52055C16.0001 8.5175 16.0001 8.51444 16.0001 8.51138C16.0001 8.50833 16.0001 8.50526 16.0001 8.5022C16.0001 8.49913 16.0001 8.49606 16.0001 8.49298C16.0001 8.48991 16.0001 8.48683 16.0001 8.48375C16.0001 8.48066 16.0001 8.47758 16.0001 8.47449C16.0001 8.4714 16.0001 8.4683 16.0001 8.4652C16.0001 8.4621 16.0001 8.459 16.0001 8.45589C16.0001 8.45279 16.0001 8.44968 16.0001 8.44656C16.0001 8.44345 16.0001 8.44033 16.0001 8.43721C16.0001 8.43409 16.0001 8.43096 16.0001 8.42783C16.0001 8.42471 16.0001 8.42157 16.0001 8.41844C16.0001 8.4153 16.0001 8.41216 16.0001 8.40902C16.0001 8.40587 16.0001 8.40272 16.0001 8.39957C16.0001 8.39642 16.0001 8.39327 16.0001 8.39011C16.0001 8.38695 16.0001 8.38379 16.0001 8.38062C16.0001 8.37746 16.0001 8.37429 16.0001 8.37111C16.0001 8.36794 16.0001 8.36476 16.0001 8.36158C16.0001 8.35841 16.0001 8.35522 16.0001 8.35203C16.0001 8.34885 16.0001 8.34566 16.0001 8.34246C16.0001 8.33927 16.0001 8.33607 16.0001 8.33287C16.0001 8.32967 16.0001 8.32647 16.0001 8.32326C16.0001 8.32005 16.0001 8.31684 16.0001 8.31363C16.0001 8.31041 16.0001 8.3072 16.0001 8.30398C16.0001 8.30076 16.0001 8.29753 16.0001 8.2943C16.0001 8.29108 16.0001 8.28785 16.0001 8.28461C16.0001 8.28138 16.0001 8.27814 16.0001 8.2749C16.0001 8.27166 16.0001 8.26842 16.0001 8.26517C16.0001 8.26193 16.0001 8.25868 16.0001 8.25542C16.0001 8.25217 16.0001 8.24892 16.0001 8.24566C16.0001 8.2424 16.0001 8.23914 16.0001 8.23587C16.0001 8.23261 16.0001 8.22934 16.0001 8.22607C16.0001 8.2228 16.0001 8.21952 16.0001 8.21625C16.0001 8.21297 16.0001 8.20969 16.0001 8.20641C16.0001 8.20312 16.0001 8.19984 16.0001 8.19655C16.0001 8.19326 16.0001 8.18997 16.0001 8.18667C16.0001 8.18338 16.0001 8.18008 16.0001 8.17678C16.0001 8.17348 16.0001 8.17018 16.0001 8.16687C16.0001 8.16357 16.0001 8.16026 16.0001 8.15695C16.0001 8.15364 16.0001 8.15032 16.0001 8.14701C16.0001 8.14369 16.0001 8.14037 16.0001 8.13705C16.0001 8.13372 16.0001 8.1304 16.0001 8.12707C16.0001 8.12374 16.0001 8.12041 16.0001 8.11708C16.0001 8.11375 16.0001 8.11041 16.0001 8.10707C16.0001 8.10374 16.0001 8.1004 16.0001 8.09705C16.0001 8.09371 16.0001 8.09036 16.0001 8.08701C16.0001 8.08367 16.0001 8.08032 16.0001 8.07696C16.0001 8.07361 16.0001 8.07025 16.0001 8.0669C16.0001 8.06354 16.0001 8.06018 16.0001 8.05681C16.0001 8.05345 16.0001 8.05008 16.0001 8.04672C16.0001 8.04335 16.0001 8.03998 16.0001 8.03661C16.0001 8.03323 16.0001 8.02986 16.0001 8.02648C16.0001 8.0231 16.0001 8.01972 16.0001 8.01634C16.0001 8.01296 16.0001 8.00958 16.0001 8.00619C16.0001 8.0028 16.0001 7.99942 16.0001 7.99603C16.0001 7.99263 16.0001 7.98924 16.0001 7.98585C16.0001 7.98245 16.0001 7.97905 16.0001 7.97565C16.0001 7.97226 16.0001 7.96885 16.0001 7.96545C16.0001 7.96205 16.0001 7.95864 16.0001 7.95523C16.0001 7.95183 16.0001 7.94842 16.0001 7.945C16.0001 7.94159 16.0001 7.93818 16.0001 7.93476C16.0001 7.93135 16.0001 7.92793 16.0001 7.92451C16.0001 7.92109 16.0001 7.91767 16.0001 7.91424C16.0001 7.91082 16.0001 7.90739 16.0001 7.90397C16.0001 7.90054 16.0001 7.89711 16.0001 7.89368C16.0001 7.89025 16.0001 7.88682 16.0001 7.88338C16.0001 7.87995 16.0001 7.87651 16.0001 7.87307C16.0001 7.86963 16.0001 7.86619 16.0001 7.86275C16.0001 7.85931 16.0001 7.85587 16.0001 7.85242C16.0001 7.84897 16.0001 7.84553 16.0001 7.84208C16.0001 7.83863 16.0001 7.83518 16.0001 7.83173C16.0001 7.82828 16.0001 7.82482 16.0001 7.82137C16.0001 7.81791 16.0001 7.81446 16.0001 7.811C16.0001 7.80754 16.0001 7.80408 16.0001 7.80062C16.0001 7.79716 16.0001 7.79369 16.0001 7.79023C16.0001 7.78676 16.0001 7.7833 16.0001 7.77983C16.0001 7.77636 16.0001 7.77289 16.0001 7.76942C16.0001 7.76595 16.0001 7.76248 16.0001 7.75901C16.0001 7.75554 16.0001 7.75206 16.0001 7.74858C16.0001 7.74511 16.0001 7.74163 16.0001 7.73815C16.0001 7.73467 16.0001 7.73119 16.0001 7.72771C16.0001 7.72423 16.0001 7.72075 16.0001 7.71727C16.0001 7.71378 16.0001 7.7103 16.0001 7.70681C16.0001 7.70333 16.0001 7.69984 16.0001 7.69635C16.0001 7.69286 16.0001 7.68937 16.0001 7.68588C16.0001 7.68239 16.0001 7.6789 16.0001 7.67541C16.0001 7.67191 16.0001 7.66842 16.0001 7.66492C16.0001 7.66143 16.0001 7.65793 16.0001 7.65443C16.0001 7.65094 16.0001 7.64744 16.0001 7.64394C16.0001 7.64044 16.0001 7.63694 16.0001 7.63344C16.0001 7.62994 16.0001 7.62643 16.0001 7.62293C16.0001 7.61943 16.0001 7.61592 16.0001 7.61242C16.0001 7.60891 16.0001 7.60541 16.0001 7.6019C16.0001 7.59839 16.0001 7.59489 16.0001 7.59138C16.0001 7.58787 16.0001 7.58436 16.0001 7.58085C16.0001 7.57734 16.0001 7.57383 16.0001 7.57032C16.0001 7.56681 16.0001 7.56329 16.0001 7.55978C16.0001 7.55627 16.0001 7.55275 16.0001 7.54924C16.0001 7.54573 16.0001 7.54221 16.0001 7.53869C16.0001 7.53518 16.0001 7.53166 16.0001 7.52815C16.0001 7.52463 16.0001 7.52111 16.0001 7.51759C16.0001 7.51407 16.0001 7.51056 16.0001 7.50704C16.0001 7.50352 16.0001 7.5 16.0001 7.49648C16.0001 7.49296 16.0001 7.48944 16.0001 7.48591C16.0001 7.48239 16.0001 7.47887 16.0001 7.47535C16.0001 7.47183 16.0001 7.4683 16.0001 7.46478C16.0001 7.46126 16.0001 7.45773 16.0001 7.45421C16.0001 7.45069 16.0001 7.44716 16.0001 7.44364C16.0001 7.44011 16.0001 7.43659 16.0001 7.43306C16.0001 7.42954 16.0001 7.42601 16.0001 7.42249C16.0001 7.41896 16.0001 7.41543 16.0001 7.41191C16.0001 7.40838 16.0001 7.40486 16.0001 7.40133C16.0001 7.3978 16.0001 7.39428 16.0001 7.39075C16.0001 7.38722 16.0001 7.38369 16.0001 7.38017C16.0001 7.37664 16.0001 7.37311 16.0001 7.36959C16.0001 7.36606 16.0001 7.36253 16.0001 7.359C16.0001 7.35548 16.0001 7.35195 16.0001 7.34842C16.0001 7.34489 16.0001 7.34136 16.0001 7.33784C16.0001 7.33431 16.0001 7.33078 16.0001 7.32725C16.0001 7.32373 16.0001 7.3202 16.0001 7.31667C16.0001 7.31315 16.0001 7.30962 16.0001 7.30609C16.0001 7.30256 16.0001 7.29904 16.0001 7.29551C16.0001 7.29198 16.0001 7.28846 16.0001 7.28493C16.0001 7.2814 16.0001 7.27788 16.0001 7.27435C16.0001 7.27082 16.0001 7.2673 16.0001 7.26377C16.0001 7.26025 16.0001 7.25672 16.0001 7.2532C16.0001 7.24967 16.0001 7.24615 16.0001 7.24262C16.0001 7.2391 16.0001 7.23558 16.0001 7.23205C16.0001 7.22853 16.0001 7.22501 16.0001 7.22148C16.0001 7.21796 16.0001 7.21444 16.0001 7.21092C16.0001 7.20739 16.0001 7.20387 16.0001 7.20035C16.0001 7.19683 16.0001 7.19331 16.0001 7.18979C16.0001 7.18627 16.0001 7.18275 16.0001 7.17923C16.0001 7.17571 16.0001 7.17219 16.0001 7.16868C16.0001 7.16516 16.0001 7.16164 16.0001 7.15812C16.0001 7.15461 16.0001 7.15109 16.0001 7.14758C16.0001 7.14406 16.0001 7.14055 16.0001 7.13703C16.0001 7.13352 16.0001 7.13001 16.0001 7.12649C16.0001 7.12298 16.0001 7.11947 16.0001 7.11596C16.0001 7.11245 16.0001 7.10894 16.0001 7.10543C16.0001 7.10192 16.0001 7.09841 16.0001 7.0949C16.0001 7.09139 16.0001 7.08789 16.0001 7.08438C16.0001 7.08087 16.0001 7.07737 16.0001 7.07386C16.0001 7.07036 16.0001 7.06686 16.0001 7.06335C16.0001 7.05985 16.0001 7.05635 16.0001 7.05285C16.0001 7.04935 16.0001 7.04585 16.0001 7.04235C16.0001 7.03885 16.0001 7.03535 16.0001 7.03186C16.0001 7.02836 16.0001 7.02487 16.0001 7.02137C16.0001 7.01788 16.0001 7.01438 16.0001 7.01089C16.0001 7.0074 16.0001 7.00391 16.0001 7.00042C16.0001 6.99693 16.0001 6.99344 16.0001 6.98995C16.0001 6.98646 16.0001 6.98298 16.0001 6.97949C16.0001 6.97601 16.0001 6.97252 16.0001 6.96904C16.0001 6.96556 16.0001 6.96208 16.0001 6.9586C16.0001 6.95512 16.0001 6.95164 16.0001 6.94816C16.0001 6.94468 16.0001 6.94121 16.0001 6.93773C16.0001 6.93426 16.0001 6.93078 16.0001 6.92731C16.0001 6.92384 16.0001 6.92037 16.0001 6.9169C16.0001 6.91343 16.0001 6.90996 16.0001 6.9065C16.0001 6.90303 16.0001 6.89956 16.0001 6.8961C16.0001 6.89264 16.0001 6.88918 16.0001 6.88572C16.0001 6.88226 16.0001 6.8788 16.0001 6.87534C16.0001 6.87188 16.0001 6.86843 16.0001 6.86497C16.0001 6.86152 16.0001 6.85807 16.0001 6.85462C16.0001 6.85116 16.0001 6.84771 16.0001 6.84427C16.0001 6.84082 16.0001 6.83737 16.0001 6.83393C16.0001 6.83049 16.0001 6.82704 16.0001 6.8236C16.0001 6.82016 16.0001 6.81672 16.0001 6.81329C16.0001 6.80985 16.0001 6.80641 16.0001 6.80298C16.0001 6.79955 16.0001 6.79612 16.0001 6.79269C16.0001 6.78926 16.0001 6.78583 16.0001 6.7824C16.0001 6.77898 16.0001 6.77555 16.0001 6.77213C16.0001 6.76871 16.0001 6.76529 16.0001 6.76187C16.0001 6.75845 16.0001 6.75504 16.0001 6.75162C16.0001 6.74821 16.0001 6.74479 16.0001 6.74138C16.0001 6.73797 16.0001 6.73457 16.0001 6.73116C16.0001 6.72775 16.0001 6.72435 16.0001 6.72095C16.0001 6.71755 16.0001 6.71415 16.0001 6.71075C16.0001 6.70735 16.0001 6.70395 16.0001 6.70056C16.0001 6.69717 16.0001 6.69378 16.0001 6.69039C16.0001 6.687 16.0001 6.68361 16.0001 6.68023C16.0001 6.67684 16.0001 6.67346 16.0001 6.67008C16.0001 6.6667 16.0001 6.66332 16.0001 6.65995C16.0001 6.65657 16.0001 6.6532 16.0001 6.64983C16.0001 6.64646 16.0001 6.64309 16.0001 6.63972C16.0001 6.63635 16.0001 6.63299 16.0001 6.62963C16.0001 6.62627 16.0001 6.62291 16.0001 6.61955C16.0001 6.6162 16.0001 6.61284 16.0001 6.60949C16.0001 6.60614 16.0001 6.60279 16.0001 6.59944C16.0001 6.5961 16.0001 6.59275 16.0001 6.58941C16.0001 6.58607 16.0001 6.58273 16.0001 6.5794C16.0001 6.57606 16.0001 6.57273 16.0001 6.5694C16.0001 6.56607 16.0001 6.56274 16.0001 6.55941C16.0001 6.55609 16.0001 6.55276 16.0001 6.54944C16.0001 6.54612 16.0001 6.5428 16.0001 6.53949C16.0001 6.53618 16.0001 6.53286 16.0001 6.52955C16.0001 6.52624 16.0001 6.52294 16.0001 6.51963C16.0001 6.51633 16.0001 6.51303 16.0001 6.50973C16.0001 6.50643 16.0001 6.50314 16.0001 6.49985C16.0001 6.49655 16.0001 6.49326 16.0001 6.48998C16.0001 6.48669 16.0001 6.48341 16.0001 6.48013C16.0001 6.47685 16.0001 6.47357 16.0001 6.47029C16.0001 6.46702 16.0001 6.46375 16.0001 6.46048C16.0001 6.45721 16.0001 6.45394 16.0001 6.45068C16.0001 6.44742 16.0001 6.44416 16.0001 6.4409C16.0001 6.43765 16.0001 6.43439 16.0001 6.43114C16.0001 6.42789 16.0001 6.42464 16.0001 6.4214C16.0001 6.41816 16.0001 6.41492 16.0001 6.41168C16.0001 6.40844 16.0001 6.40521 16.0001 6.40197C16.0001 6.39874 16.0001 6.39552 16.0001 6.39229C16.0001 6.38907 16.0001 6.38584 16.0001 6.38263C16.0001 6.37941 16.0001 6.37619 16.0001 6.37298C16.0001 6.36977 16.0001 6.36656 16.0001 6.36336C16.0001 6.36015 16.0001 6.35695 16.0001 6.35375C16.0001 6.35055 16.0001 6.34736 16.0001 6.34417C16.0001 6.34098 16.0001 6.33779 16.0001 6.33461C16.0001 6.33142 16.0001 6.32824 16.0001 6.32506C16.0001 6.32189 16.0001 6.31871 16.0001 6.31554C16.0001 6.31237 16.0001 6.30921 16.0001 6.30604C16.0001 6.30288 16.0001 6.29972 16.0001 6.29656C16.0001 6.29341 16.0001 6.29026 16.0001 6.28711C16.0001 6.28396 16.0001 6.28081 16.0001 6.27767C16.0001 6.27453 16.0001 6.27139 16.0001 6.26826C16.0001 6.26513 16.0001 6.262 16.0001 6.25887C16.0001 6.25574 16.0001 6.25262 16.0001 6.2495C16.0001 6.24638 16.0001 6.24327 16.0001 6.24016C16.0001 6.23705 16.0001 6.23394 16.0001 6.23084C16.0001 6.22773 16.0001 6.22463 16.0001 6.22154C16.0001 6.21844 16.0001 6.21535 16.0001 6.21226C16.0001 6.20917 16.0001 6.20609 16.0001 6.20301C16.0001 6.19993 16.0001 6.19685 16.0001 6.19378C16.0001 6.19071 16.0001 6.18764 16.0001 6.18458C16.0001 6.18152 16.0001 6.17846 16.0001 6.1754C16.0001 6.17234 16.0001 6.16929 16.0001 6.16624C16.0001 6.1632 16.0001 6.16015 16.0001 6.15711C16.0001 6.15408 16.0001 6.15104 16.0001 6.14801C16.0001 6.14498 16.0001 6.14195 16.0001 6.13893C16.0001 6.13591 16.0001 6.13289 16.0001 6.12987C16.0001 6.12686 16.0001 6.12385 16.0001 6.12084C16.0001 6.11784 16.0001 6.11484 16.0001 6.11184C16.0001 6.10884 16.0001 6.10585 16.0001 6.10286C16.0001 6.09987 16.0001 6.09689 16.0001 6.09391C16.0001 6.09093 16.0001 6.08796 16.0001 6.08499C16.0001 6.08202 16.0001 6.07905 16.0001 6.07609C16.0001 6.07313 16.0001 6.07017 16.0001 6.06722C16.0001 6.06426 16.0001 6.06131 16.0001 6.05837C16.0001 6.05543 16.0001 6.05249 16.0001 6.04955C16.0001 6.04662 16.0001 6.04369 16.0001 6.04076C16.0001 6.03784 16.0001 6.03492 16.0001 6.032C16.0001 6.02908 16.0001 6.02617 16.0001 6.02327C16.0001 6.02036 16.0001 6.01746 16.0001 6.01456C16.0001 6.01166 16.0001 6.00877 16.0001 6.00588C16.0001 6.00299 16.0001 6.00011 16.0001 5.99723C16.0001 5.99435 16.0001 5.99148 16.0001 5.98861C16.0001 5.98574 16.0001 5.98288 16.0001 5.98002C16.0001 5.97716 16.0001 5.9743 16.0001 5.97146C16.0001 5.96861 16.0001 5.96576 16.0001 5.96292C16.0001 5.96008 16.0001 5.95725 16.0001 5.95442C16.0001 5.95159 16.0001 5.94876 16.0001 5.94594C16.0001 5.94312 16.0001 5.94031 16.0001 5.9375C16.0001 5.93469 16.0001 5.93188 16.0001 5.92908C16.0001 5.92628 16.0001 5.92349 16.0001 5.9207C16.0001 5.91791 16.0001 5.91513 16.0001 5.91235C16.0001 5.90957 16.0001 5.90679 16.0001 5.90402C16.0001 5.90126 16.0001 5.89849 16.0001 5.89573C16.0001 5.89297 16.0001 5.89022 16.0001 5.88747C16.0001 5.88472 16.0001 5.88198 16.0001 5.87924C16.0001 5.87651 16.0001 5.87377 16.0001 5.87105C16.0001 5.86832 16.0001 5.8656 16.0001 5.86288C16.0001 5.86017 16.0001 5.85745 16.0001 5.85475C16.0001 5.85204 16.0001 5.84934 16.0001 5.84665C16.0001 5.84395 16.0001 5.84126 16.0001 5.83858C16.0001 5.8359 16.0001 5.83322 16.0001 5.83054C16.0001 5.82787 16.0001 5.8252 16.0001 5.82254C16.0001 5.81988 16.0001 5.81722 16.0001 5.81457C16.0001 5.81192 16.0001 5.80928 16.0001 5.80664C16.0001 5.804 16.0001 5.80136 16.0001 5.79873C16.0001 5.7961 16.0001 5.79348 16.0001 5.79086C16.0001 5.78825 16.0001 5.78564 16.0001 5.78303C16.0001 5.78042 16.0001 5.77782 16.0001 5.77523C16.0001 5.77263 16.0001 5.77005 16.0001 5.76746C16.0001 5.76488 16.0001 5.7623 16.0001 5.75973C16.0001 5.75716 16.0001 5.75459 16.0001 5.75204C16.0001 5.74948 16.0001 5.74692 16.0001 5.74437C16.0001 5.74183 16.0001 5.73928 16.0001 5.73675C16.0001 5.73421 16.0001 5.73168 16.0001 5.72916C16.0001 5.72663 16.0001 5.72411 16.0001 5.7216C16.0001 5.71909 16.0001 5.71658 16.0001 5.71408C16.0001 5.71158 16.0001 5.70909 16.0001 5.7066C16.0001 5.70411 16.0001 5.70163 16.0001 5.69915C16.0001 5.69668 16.0001 5.6942 16.0001 5.69174C16.0001 5.68928 16.0001 5.68682 16.0001 5.68437C16.0001 5.68192 16.0001 5.67947 16.0001 5.67703C16.0001 5.67459 16.0001 5.67216 16.0001 5.66973C16.0001 5.6673 16.0001 5.66488 16.0001 5.66247C16.0001 5.66005 16.0001 5.65765 16.0001 5.65524C16.0001 5.65284 16.0001 5.65045 16.0001 5.64806C16.0001 5.64567 16.0001 5.64329 16.0001 5.64091C16.0001 5.63853 16.0001 5.63616 16.0001 5.6338C16.0001 5.63143 16.0001 5.62908 16.0001 5.62673C16.0001 5.62438 16.0001 5.62203 16.0001 5.61969C16.0001 5.61735 16.0001 5.61502 16.0001 5.6127C16.0001 5.61037 16.0001 5.60806 16.0001 5.60574C16.0001 5.60343 16.0001 5.60113 16.0001 5.59883C16.0001 5.59653 16.0001 5.59424 16.0001 5.59195C16.0001 5.58966 16.0001 5.58739 16.0001 5.58511C16.0001 5.58284 16.0001 5.58057 16.0001 5.57832C16.0001 5.57606 16.0001 5.5738 16.0001 5.57156C16.0001 5.56931 16.0001 5.56707 16.0001 5.56484C16.0001 5.56261 16.0001 5.56038 16.0001 5.55817C16.0001 5.55595 16.0001 5.55374 16.0001 5.55153C16.0001 5.54933 16.0001 5.54713 16.0001 5.54494C16.0001 5.54275 16.0001 5.54056 16.0001 5.53838H14.0001ZM15.0001 8.57676H10.9618V10.5768H15.0001V8.57676ZM10.9618 8.57676C10.3608 8.57676 9.77338 8.39857 9.27372 8.06471L8.16258 9.72764C8.99114 10.2813 9.96526 10.5768 10.9618 10.5768V8.57676ZM9.27372 8.06471C8.77406 7.73084 8.38463 7.25631 8.15466 6.70112L6.3069 7.46649C6.68824 8.38713 7.33403 9.17402 8.16258 9.72764L9.27372 8.06471ZM8.15466 6.70112C7.92469 6.14593 7.86452 5.53501 7.98176 4.94562L6.02019 4.55544C5.82578 5.53279 5.92556 6.54584 6.3069 7.46649L8.15466 6.70112ZM7.98176 4.94562C8.09899 4.35624 8.38837 3.81485 8.8133 3.38992L7.39908 1.97571C6.69445 2.68034 6.21459 3.57809 6.02019 4.55544L7.98176 4.94562ZM8.8133 3.38992C9.23822 2.965 9.77961 2.67562 10.369 2.55838L9.97882 0.596813C9.00147 0.79122 8.10371 1.27108 7.39908 1.97571L8.8133 3.38992ZM10.369 2.55838C10.9584 2.44115 11.5693 2.50132 12.1245 2.73128L12.8899 0.883526C11.9692 0.502183 10.9562 0.402406 9.97882 0.596813L10.369 2.55838ZM12.1245 2.73128C12.6797 2.96125 13.1542 3.35069 13.4881 3.85035L15.151 2.73921C14.5974 1.91065 13.8105 1.26487 12.8899 0.883526L12.1245 2.73128ZM13.4881 3.85035C13.8219 4.34997 14.0001 4.9374 14.0001 5.53838H16.0001C16.0001 4.54193 15.7047 3.56781 15.151 2.73921L13.4881 3.85035ZM3.46194 10.5774H26.5384V8.57736H3.46194V10.5774ZM26.5384 10.5774C27.2606 10.5774 27.8461 11.1628 27.8461 11.885H29.8461C29.8461 10.0582 28.3652 8.57736 26.5384 8.57736V10.5774ZM27.8461 11.885V15.3465H29.8461V11.885H27.8461ZM27.8461 15.3465C27.8461 16.0687 27.2606 16.6541 26.5384 16.6541V18.6541C28.3652 18.6541 29.8461 17.1732 29.8461 15.3465H27.8461ZM26.5384 16.6541H3.46194V18.6541H26.5384V16.6541ZM3.46194 16.6541C2.73975 16.6541 2.1543 16.0687 2.1543 15.3465H0.154297C0.154297 17.1732 1.63518 18.6541 3.46194 18.6541V16.6541ZM2.1543 15.3465V11.885H0.154297V15.3465H2.1543ZM2.1543 11.885C2.1543 11.1628 2.73975 10.5774 3.46194 10.5774V8.57736C1.63518 8.57736 0.154297 10.0582 0.154297 11.885H2.1543ZM25.5384 17.6541L25.5385 28.0384L27.5385 28.0384L27.5384 17.6541L25.5384 17.6541ZM25.5385 28.0384C25.5385 28.6912 25.2792 29.3173 24.8175 29.7789L26.2318 31.1931C27.0684 30.3564 27.5385 29.2216 27.5385 28.0384H25.5385ZM24.8175 29.7789C24.3559 30.2405 23.7298 30.4999 23.077 30.4999V32.4999C24.2603 32.4999 25.3951 32.0298 26.2318 31.1931L24.8175 29.7789ZM23.077 30.4999H6.92349V32.4999H23.077V30.4999ZM6.92349 30.4999C6.27067 30.4999 5.64458 30.2405 5.18297 29.7789L3.76875 31.1931C4.60544 32.0298 5.74023 32.4999 6.92349 32.4999V30.4999ZM5.18297 29.7789C4.72135 29.3173 4.46202 28.6912 4.46202 28.0384H2.46202C2.46202 29.2216 2.93207 30.3564 3.76875 31.1931L5.18297 29.7789ZM4.46202 28.0384L4.46194 17.6541L2.46194 17.6541L2.46202 28.0384L4.46202 28.0384ZM14.0001 9.57676V31.5H16.0001V9.57676H14.0001Z" fill="black"/>
</svg>
