<svg width="24" height="24" viewBox="0 0 24 24" fill="none" xmlns="http://www.w3.org/2000/svg">
<path d="M22.5 23.25H2.25C1.85217 23.25 1.47064 23.092 1.18934 22.8106C0.908035 22.5293 0.75 22.1478 0.75 21.75V1.5C0.75 1.30109 0.829018 1.11032 0.96967 0.96967C1.11032 0.829018 1.30109 0.75 1.5 0.75C1.69891 0.75 1.88968 0.829018 2.03033 0.96967C2.17098 1.11032 2.25 1.30109 2.25 1.5V21.75H22.5C22.6989 21.75 22.8897 21.829 23.0303 21.9697C23.171 22.1103 23.25 22.3011 23.25 22.5C23.25 22.6989 23.171 22.8897 23.0303 23.0303C22.8897 23.171 22.6989 23.25 22.5 23.25Z" fill="white"/>
<path d="M7.31205 20.25H5.43705C4.9895 20.25 4.56028 20.0722 4.24381 19.7557C3.92734 19.4392 3.74956 19.01 3.74956 18.5625V11.4375C3.74956 10.9899 3.92734 10.5607 4.24381 10.2442C4.56028 9.92775 4.9895 9.74996 5.43705 9.74996H7.31205C7.75961 9.74996 8.18883 9.92775 8.50529 10.2442C8.82176 10.5607 8.99955 10.9899 8.99955 11.4375V18.5625C8.99955 19.01 8.82176 19.4392 8.50529 19.7557C8.18883 20.0722 7.75961 20.25 7.31205 20.25Z" fill="white"/>
<path d="M14.062 20.2498H12.187C11.7395 20.2498 11.3102 20.072 10.9938 19.7555C10.6773 19.4391 10.4995 19.0098 10.4995 18.5623V9.18729C10.4995 8.73974 10.6773 8.31052 10.9938 7.99405C11.3102 7.67758 11.7395 7.49979 12.187 7.49979H14.062C14.5096 7.49979 14.9388 7.67758 15.2552 7.99405C15.5717 8.31052 15.7495 8.73974 15.7495 9.18729V18.5623C15.7495 19.0098 15.5717 19.4391 15.2552 19.7555C14.9388 20.072 14.5096 20.2498 14.062 20.2498Z" fill="white"/>
<path d="M20.7952 20.2505H18.9202C18.4726 20.2505 18.0434 20.0727 17.7269 19.7563C17.4104 19.4398 17.2327 19.0106 17.2327 18.563V6.18804C17.2327 5.74049 17.4104 5.31127 17.7269 4.9948C18.0434 4.67833 18.4726 4.50054 18.9202 4.50054H20.7952C21.2427 4.50054 21.6719 4.67833 21.9884 4.9948C22.3049 5.31127 22.4827 5.74049 22.4827 6.18804V18.563C22.4827 19.0106 22.3049 19.4398 21.9884 19.7563C21.6719 20.0727 21.2427 20.2505 20.7952 20.2505Z" fill="white"/>
</svg>
