<svg width="16" height="30" viewBox="0 0 16 30" fill="none" xmlns="http://www.w3.org/2000/svg">
<path d="M12.4444 0.777771H3.55556C2.61256 0.777771 1.70819 1.15237 1.0414 1.81917C0.374602 2.48597 0 3.39034 0 4.33333V25.6667C0 26.6097 0.374602 27.514 1.0414 28.1808C1.70819 28.8476 2.61256 29.2222 3.55556 29.2222H12.4444C13.3874 29.2222 14.2918 28.8476 14.9586 28.1808C15.6254 27.514 16 26.6097 16 25.6667V4.33333C16 3.39034 15.6254 2.48597 14.9586 1.81917C14.2918 1.15237 13.3874 0.777771 12.4444 0.777771ZM14.2222 25.6667C14.2222 26.1382 14.0349 26.5903 13.7015 26.9237C13.3681 27.2571 12.9159 27.4444 12.4444 27.4444H3.55556C3.08406 27.4444 2.63188 27.2571 2.29848 26.9237C1.96508 26.5903 1.77778 26.1382 1.77778 25.6667V4.33333C1.77778 3.86183 1.96508 3.40965 2.29848 3.07625C2.63188 2.74285 3.08406 2.55555 3.55556 2.55555H4.18611C4.27207 2.55524 4.35625 2.58004 4.4283 2.62693C4.50035 2.67381 4.55713 2.74072 4.59167 2.81944C4.7297 3.13718 4.95755 3.40767 5.24724 3.59767C5.53692 3.78766 5.87579 3.88888 6.22222 3.88888H9.77778C10.1242 3.88888 10.4631 3.78766 10.7528 3.59767C11.0424 3.40767 11.2703 3.13718 11.4083 2.81944C11.4429 2.74072 11.4997 2.67381 11.5717 2.62693C11.6438 2.58004 11.7279 2.55524 11.8139 2.55555H12.4444C12.9159 2.55555 13.3681 2.74285 13.7015 3.07625C14.0349 3.40965 14.2222 3.86183 14.2222 4.33333V25.6667Z" fill="white"/>
<path d="M12.4444 0.777771H3.55556C2.61256 0.777771 1.70819 1.15237 1.0414 1.81917C0.374602 2.48597 0 3.39034 0 4.33333V25.6667C0 26.6097 0.374602 27.514 1.0414 28.1808C1.70819 28.8476 2.61256 29.2222 3.55556 29.2222H12.4444C13.3874 29.2222 14.2918 28.8476 14.9586 28.1808C15.6254 27.514 16 26.6097 16 25.6667V4.33333C16 3.39034 15.6254 2.48597 14.9586 1.81917C14.2918 1.15237 13.3874 0.777771 12.4444 0.777771ZM14.2222 25.6667C14.2222 26.1382 14.0349 26.5903 13.7015 26.9237C13.3681 27.2571 12.9159 27.4444 12.4444 27.4444H3.55556C3.08406 27.4444 2.63188 27.2571 2.29848 26.9237C1.96508 26.5903 1.77778 26.1382 1.77778 25.6667V4.33333C1.77778 3.86183 1.96508 3.40965 2.29848 3.07625C2.63188 2.74285 3.08406 2.55555 3.55556 2.55555H4.18611C4.27207 2.55524 4.35625 2.58004 4.4283 2.62693C4.50035 2.67381 4.55713 2.74072 4.59167 2.81944C4.7297 3.13718 4.95755 3.40767 5.24724 3.59767C5.53692 3.78766 5.87579 3.88888 6.22222 3.88888H9.77778C10.1242 3.88888 10.4631 3.78766 10.7528 3.59767C11.0424 3.40767 11.2703 3.13718 11.4083 2.81944C11.4429 2.74072 11.4997 2.67381 11.5717 2.62693C11.6438 2.58004 11.7279 2.55524 11.8139 2.55555H12.4444C12.9159 2.55555 13.3681 2.74285 13.7015 3.07625C14.0349 3.40965 14.2222 3.86183 14.2222 4.33333V25.6667Z" fill="white"/>
<path d="M12.4444 3.44465C12.342 3.44402 12.2409 3.46724 12.149 3.51246C12.0571 3.55768 11.977 3.62367 11.915 3.7052C11.6668 4.03804 11.3444 4.30835 10.9734 4.49459C10.6023 4.68084 10.1929 4.77787 9.77776 4.77798H6.22221C5.80704 4.77787 5.39764 4.68084 5.0266 4.49459C4.65556 4.30835 4.33313 4.03804 4.08498 3.7052C4.023 3.62367 3.94289 3.55768 3.851 3.51246C3.75911 3.46724 3.65795 3.44402 3.55554 3.44465C3.31979 3.44465 3.0937 3.5383 2.927 3.705C2.7603 3.8717 2.66665 4.09779 2.66665 4.33354V25.6669C2.66665 25.9026 2.7603 26.1287 2.927 26.2954C3.0937 26.4621 3.31979 26.5558 3.55554 26.5558H12.4444C12.6802 26.5558 12.9063 26.4621 13.073 26.2954C13.2397 26.1287 13.3333 25.9026 13.3333 25.6669V4.33354C13.3333 4.09779 13.2397 3.8717 13.073 3.705C12.9063 3.5383 12.6802 3.44465 12.4444 3.44465Z" fill="white"/>
</svg>
