<svg width="30" height="24" viewBox="0 0 30 24" fill="none" xmlns="http://www.w3.org/2000/svg">
<path d="M24.3671 13.3135C24.3671 12.8356 24.7544 12.4483 25.2323 12.4483H26.0766C25.6836 9.25148 23.1423 6.71037 19.9455 6.31719V7.16145C19.9455 7.63934 19.5582 8.02666 19.0803 8.02666C18.6026 8.02666 18.2151 7.63934 18.2151 7.16145V6.31719C15.0185 6.71037 12.4774 9.25148 12.0842 12.4483H12.9285C13.4064 12.4483 13.7937 12.8356 13.7937 13.3135C13.7937 13.7912 13.4064 14.1787 12.9285 14.1787H12.0842C12.4772 17.3753 15.0185 19.9164 18.2151 20.3095V19.4653C18.2151 18.9874 18.6026 18.6001 19.0803 18.6001C19.5582 18.6001 19.9455 18.9874 19.9455 19.4653V20.3095C23.1423 19.9166 25.6834 17.3753 26.0766 14.1787H25.2323C24.7544 14.1787 24.3671 13.7912 24.3671 13.3135ZM21.552 15.785C21.383 15.954 21.1615 16.0385 20.9403 16.0385C20.7188 16.0385 20.4973 15.954 20.3283 15.785L18.4685 13.9252C18.3063 13.763 18.2153 13.5429 18.2153 13.3135V11.0292C18.2153 10.5513 18.6026 10.164 19.0805 10.164C19.5582 10.164 19.9457 10.5513 19.9457 11.0292V12.955L21.552 14.5613C21.89 14.8993 21.89 15.447 21.552 15.785Z" fill="white"/>
<path d="M19.9457 2.66189V1.73043H20.132C20.6099 1.73043 20.9973 1.34311 20.9973 0.865214C20.9973 0.387318 20.6099 0 20.132 0H18.0287C17.551 0 17.1635 0.387318 17.1635 0.865214C17.1635 1.34311 17.551 1.73043 18.0287 1.73043H18.2151V2.66189C12.7257 3.10396 8.39375 7.71212 8.39375 13.3133C8.39375 19.2059 13.1878 24 19.0803 24C24.973 24 29.767 19.2059 29.767 13.3135C29.767 7.71212 25.4351 3.10396 19.9457 2.66189ZM19.0805 22.0929C14.2394 22.0929 10.3008 18.1544 10.3008 13.3133C10.3008 8.47211 14.2394 4.53359 19.0805 4.53359C23.9216 4.53359 27.8602 8.47234 27.8602 13.3135C27.8602 18.1544 23.9214 22.0929 19.0805 22.0929Z" fill="white"/>
<path d="M5.9342 9.83325H2.71105C2.23338 9.83325 1.84584 9.4457 1.84584 8.96803C1.84584 8.49014 2.23338 8.10282 2.71105 8.10282H5.9342C6.41209 8.10282 6.79941 8.49014 6.79941 8.96803C6.79941 9.4457 6.41209 9.83325 5.9342 9.83325Z" fill="white"/>
<path d="M5.9342 13.4144H1.09959C0.621693 13.4144 0.234375 13.0271 0.234375 12.5492C0.234375 12.0713 0.621693 11.684 1.09959 11.684H5.9342C6.41209 11.684 6.79941 12.0713 6.79941 12.5492C6.79941 13.0271 6.41209 13.4144 5.9342 13.4144Z" fill="white"/>
<path d="M5.9342 16.9956H2.71105C2.23338 16.9956 1.84584 16.6083 1.84584 16.1304C1.84584 15.6525 2.23338 15.2652 2.71105 15.2652H5.9342C6.41209 15.2652 6.79941 15.6525 6.79941 16.1304C6.79941 16.6083 6.41209 16.9956 5.9342 16.9956Z" fill="white"/>
</svg>
