<svg width="24" height="20" viewBox="0 0 24 20" fill="none" xmlns="http://www.w3.org/2000/svg">
<path d="M21.6 17.2H2.39999C2.18782 17.2 1.98433 17.1157 1.8343 16.9656C1.68427 16.8156 1.59999 16.6121 1.59999 16.4C1.59999 16.1878 1.68427 15.9843 1.8343 15.8343C1.98433 15.6842 2.18782 15.6 2.39999 15.6H21.6C21.8122 15.6 22.0156 15.6842 22.1657 15.8343C22.3157 15.9843 22.4 16.1878 22.4 16.4C22.4 16.6121 22.3157 16.8156 22.1657 16.9656C22.0156 17.1157 21.8122 17.2 21.6 17.2Z" fill="white"/>
<path d="M20.0001 19.6001H4.00011C3.78793 19.6001 3.58445 19.5159 3.43442 19.3658C3.28439 19.2158 3.20011 19.0123 3.20011 18.8001C3.20011 18.588 3.28439 18.3845 3.43442 18.2345C3.58445 18.0844 3.78793 18.0001 4.00011 18.0001H20.0001C20.2123 18.0001 20.4158 18.0844 20.5658 18.2345C20.7158 18.3845 20.8001 18.588 20.8001 18.8001C20.8001 19.0123 20.7158 19.2158 20.5658 19.3658C20.4158 19.5159 20.2123 19.6001 20.0001 19.6001Z" fill="white"/>
<path d="M0.8 10.8006H0V13.2006C0 13.625 0.168571 14.032 0.468629 14.332C0.768687 14.6321 1.17565 14.8006 1.6 14.8006H4V14.0006C3.99907 13.1522 3.66163 12.3388 3.06172 11.7389C2.4618 11.139 1.64841 10.8016 0.8 10.8006Z" fill="white"/>
<path d="M23.2 9.19987H24V5.99987H23.2C21.9274 5.99842 20.7074 5.49224 19.8075 4.59238C18.9076 3.69252 18.4015 2.47246 18.4 1.19987V0.399872H5.6V1.19987C5.59854 2.47246 5.09236 3.69252 4.1925 4.59238C3.29265 5.49224 2.07259 5.99842 0.8 5.99987H0V9.19987C0.25 9.19987 0.517 9.19987 0.8 9.19987C2.07259 9.20133 3.29265 9.70751 4.1925 10.6074C5.09236 11.5072 5.59854 12.7273 5.6 13.9999V14.7999H18.4V13.9999C18.4015 12.7273 18.9076 11.5072 19.8075 10.6074C20.7074 9.70751 21.9274 9.20133 23.2 9.19987ZM12 12.3999C11.0506 12.3999 10.1226 12.1184 9.33326 11.5909C8.54391 11.0635 7.92868 10.3138 7.56538 9.43675C7.20208 8.55967 7.10702 7.59455 7.29223 6.66344C7.47744 5.73233 7.9346 4.87705 8.60589 4.20576C9.27718 3.53447 10.1325 3.07731 11.0636 2.8921C11.9947 2.70689 12.9598 2.80195 13.8369 3.16525C14.714 3.52855 15.4636 4.14378 15.9911 4.93313C16.5185 5.72249 16.8 6.65052 16.8 7.59987C16.7985 8.87246 16.2924 10.0925 15.3925 10.9924C14.4926 11.8922 13.2726 12.3984 12 12.3999Z" fill="white"/>
<path d="M11.9999 10.8002C13.7673 10.8002 15.1999 9.36748 15.1999 7.60017C15.1999 5.83286 13.7673 4.40017 11.9999 4.40017C10.2326 4.40017 8.79994 5.83286 8.79994 7.60017C8.79994 9.36748 10.2326 10.8002 11.9999 10.8002Z" fill="white"/>
<path d="M19.9999 14.0006V14.8006H22.3999C22.8242 14.8006 23.2312 14.6321 23.5312 14.332C23.8313 14.032 23.9999 13.625 23.9999 13.2006V10.8006H23.1999C22.3515 10.8016 21.5381 11.139 20.9381 11.7389C20.3382 12.3388 20.0008 13.1522 19.9999 14.0006Z" fill="white"/>
<path d="M23.1999 4.39987H23.9999V1.99987C23.9999 1.57553 23.8313 1.16856 23.5312 0.868501C23.2312 0.568443 22.8242 0.399872 22.3999 0.399872H19.9999V1.19987C20.0008 2.04828 20.3382 2.86167 20.9381 3.46159C21.5381 4.06151 22.3515 4.39895 23.1999 4.39987Z" fill="white"/>
<path d="M4 1.19987V0.399872H1.6C1.17565 0.399872 0.768687 0.568443 0.468629 0.868501C0.168571 1.16856 0 1.57553 0 1.99987V4.39987H0.8C1.64841 4.39895 2.4618 4.06151 3.06172 3.46159C3.66163 2.86167 3.99907 2.04828 4 1.19987Z" fill="white"/>
</svg>
