<svg width="24" height="20" viewBox="0 0 24 20" fill="none" xmlns="http://www.w3.org/2000/svg">
<path d="M1.64987 8.61762C8.09231 5.81075 12.3883 3.96029 14.5378 3.06624C20.675 0.513546 21.9503 0.0701162 22.7815 0.0553177C22.9643 0.0522534 23.3731 0.0975601 23.6379 0.312409C23.8614 0.493824 23.9229 0.738889 23.9524 0.91089C23.9818 1.08289 24.0185 1.47471 23.9893 1.78087C23.6567 5.27532 22.2177 13.7554 21.4856 17.6693C21.1758 19.3253 20.5658 19.8806 19.9753 19.935C18.6919 20.0531 17.7174 19.0868 16.4744 18.272C14.5294 16.997 13.4305 16.2033 11.5425 14.9592C9.36064 13.5213 10.7751 12.7311 12.0185 11.4396C12.344 11.1016 17.9985 5.95837 18.1079 5.4918C18.1216 5.43344 18.1343 5.21593 18.0051 5.10108C17.8759 4.98623 17.6851 5.02551 17.5475 5.05674C17.3524 5.10102 14.2452 7.15478 8.22584 11.218C7.34386 11.8237 6.54499 12.1187 5.82924 12.1033C5.04017 12.0862 3.52233 11.6571 2.39397 11.2903C1.00999 10.8405 -0.0899675 10.6026 0.00581422 9.83858C0.0557033 9.44063 0.603724 9.03364 1.64987 8.61762Z" fill="#8D191D"/>
</svg>
