<svg width="25" height="25" viewBox="0 0 25 25" fill="none" xmlns="http://www.w3.org/2000/svg">
<path d="M21.0714 2.21421H20.2143V1.38117C20.2143 0.919922 19.8596 0.524029 19.3984 0.500993C19.2825 0.495409 19.1667 0.513413 19.0579 0.553914C18.9492 0.594415 18.8498 0.65657 18.7658 0.736612C18.6818 0.816654 18.615 0.912916 18.5693 1.01957C18.5236 1.12622 18.5 1.24104 18.5 1.35706V2.21421H6.5V1.38117C6.5 0.919922 6.14536 0.524029 5.68411 0.500993C5.56821 0.495409 5.45239 0.513413 5.34366 0.553914C5.23493 0.594415 5.13556 0.65657 5.05156 0.736612C4.96756 0.816654 4.90068 0.912916 4.85499 1.01957C4.80929 1.12622 4.78573 1.24104 4.78571 1.35706V2.21421H3.92857C3.01926 2.21421 2.14719 2.57543 1.50421 3.21841C0.861224 3.86139 0.5 4.73347 0.5 5.64278V21.0714C0.5 21.9807 0.861224 22.8527 1.50421 23.4957C2.14719 24.1387 3.01926 24.4999 3.92857 24.4999H21.0714C21.9807 24.4999 22.8528 24.1387 23.4958 23.4957C24.1388 22.8527 24.5 21.9807 24.5 21.0714V5.64278C24.5 4.73347 24.1388 3.86139 23.4958 3.21841C22.8528 2.57543 21.9807 2.21421 21.0714 2.21421ZM6.07143 21.0714C5.81714 21.0714 5.56856 20.9959 5.35712 20.8547C5.14569 20.7134 4.9809 20.5126 4.88358 20.2777C4.78627 20.0427 4.76081 19.7842 4.81042 19.5348C4.86003 19.2854 4.98248 19.0563 5.16229 18.8765C5.3421 18.6967 5.57119 18.5742 5.8206 18.5246C6.07 18.475 6.32852 18.5005 6.56345 18.5978C6.79838 18.6951 6.99919 18.8599 7.14046 19.0713C7.28174 19.2828 7.35714 19.5313 7.35714 19.7856C7.35714 20.1266 7.22168 20.4537 6.98057 20.6948C6.73945 20.9359 6.41242 21.0714 6.07143 21.0714ZM6.07143 16.7856C5.81714 16.7856 5.56856 16.7102 5.35712 16.569C5.14569 16.4277 4.9809 16.2269 4.88358 15.9919C4.78627 15.757 4.76081 15.4985 4.81042 15.2491C4.86003 14.9997 4.98248 14.7706 5.16229 14.5908C5.3421 14.411 5.57119 14.2885 5.8206 14.2389C6.07 14.1893 6.32852 14.2148 6.56345 14.3121C6.79838 14.4094 6.99919 14.5742 7.14046 14.7856C7.28174 14.9971 7.35714 15.2456 7.35714 15.4999C7.35714 15.8409 7.22168 16.1679 6.98057 16.4091C6.73945 16.6502 6.41242 16.7856 6.07143 16.7856ZM10.3571 21.0714C10.1029 21.0714 9.85427 20.9959 9.64284 20.8547C9.4314 20.7134 9.26661 20.5126 9.1693 20.2777C9.07199 20.0427 9.04652 19.7842 9.09613 19.5348C9.14574 19.2854 9.2682 19.0563 9.44801 18.8765C9.62782 18.6967 9.85691 18.5742 10.1063 18.5246C10.3557 18.475 10.6142 18.5005 10.8492 18.5978C11.0841 18.6951 11.2849 18.8599 11.4262 19.0713C11.5675 19.2828 11.6429 19.5313 11.6429 19.7856C11.6429 20.1266 11.5074 20.4537 11.2663 20.6948C11.0252 20.9359 10.6981 21.0714 10.3571 21.0714ZM10.3571 16.7856C10.1029 16.7856 9.85427 16.7102 9.64284 16.569C9.4314 16.4277 9.26661 16.2269 9.1693 15.9919C9.07199 15.757 9.04652 15.4985 9.09613 15.2491C9.14574 14.9997 9.2682 14.7706 9.44801 14.5908C9.62782 14.411 9.85691 14.2885 10.1063 14.2389C10.3557 14.1893 10.6142 14.2148 10.8492 14.3121C11.0841 14.4094 11.2849 14.5742 11.4262 14.7856C11.5675 14.9971 11.6429 15.2456 11.6429 15.4999C11.6429 15.8409 11.5074 16.1679 11.2663 16.4091C11.0252 16.6502 10.6981 16.7856 10.3571 16.7856ZM14.6429 21.0714C14.3886 21.0714 14.14 20.9959 13.9286 20.8547C13.7171 20.7134 13.5523 20.5126 13.455 20.2777C13.3577 20.0427 13.3322 19.7842 13.3818 19.5348C13.4315 19.2854 13.5539 19.0563 13.7337 18.8765C13.9135 18.6967 14.1426 18.5742 14.392 18.5246C14.6414 18.475 14.8999 18.5005 15.1349 18.5978C15.3698 18.6951 15.5706 18.8599 15.7119 19.0713C15.8532 19.2828 15.9286 19.5313 15.9286 19.7856C15.9286 20.1266 15.7931 20.4537 15.552 20.6948C15.3109 20.9359 14.9838 21.0714 14.6429 21.0714ZM14.6429 16.7856C14.3886 16.7856 14.14 16.7102 13.9286 16.569C13.7171 16.4277 13.5523 16.2269 13.455 15.9919C13.3577 15.757 13.3322 15.4985 13.3818 15.2491C13.4315 14.9997 13.5539 14.7706 13.7337 14.5908C13.9135 14.411 14.1426 14.2885 14.392 14.2389C14.6414 14.1893 14.8999 14.2148 15.1349 14.3121C15.3698 14.4094 15.5706 14.5742 15.7119 14.7856C15.8532 14.9971 15.9286 15.2456 15.9286 15.4999C15.9286 15.8409 15.7931 16.1679 15.552 16.4091C15.3109 16.6502 14.9838 16.7856 14.6429 16.7856ZM14.6429 12.4999C14.3886 12.4999 14.14 12.4245 13.9286 12.2832C13.7171 12.142 13.5523 11.9412 13.455 11.7062C13.3577 11.4713 13.3322 11.2128 13.3818 10.9634C13.4315 10.714 13.5539 10.4849 13.7337 10.3051C13.9135 10.1253 14.1426 10.0028 14.392 9.9532C14.6414 9.90359 14.8999 9.92905 15.1349 10.0264C15.3698 10.1237 15.5706 10.2885 15.7119 10.4999C15.8532 10.7113 15.9286 10.9599 15.9286 11.2142C15.9286 11.5552 15.7931 11.8822 15.552 12.1233C15.3109 12.3645 14.9838 12.4999 14.6429 12.4999ZM18.9286 16.7856C18.6743 16.7856 18.4257 16.7102 18.2143 16.569C18.0028 16.4277 17.838 16.2269 17.7407 15.9919C17.6434 15.757 17.618 15.4985 17.6676 15.2491C17.7172 14.9997 17.8396 14.7706 18.0194 14.5908C18.1992 14.411 18.4283 14.2885 18.6777 14.2389C18.9271 14.1893 19.1857 14.2148 19.4206 14.3121C19.6555 14.4094 19.8563 14.5742 19.9976 14.7856C20.1389 14.9971 20.2143 15.2456 20.2143 15.4999C20.2143 15.8409 20.0788 16.1679 19.8377 16.4091C19.5966 16.6502 19.2696 16.7856 18.9286 16.7856ZM18.9286 12.4999C18.6743 12.4999 18.4257 12.4245 18.2143 12.2832C18.0028 12.142 17.838 11.9412 17.7407 11.7062C17.6434 11.4713 17.618 11.2128 17.6676 10.9634C17.7172 10.714 17.8396 10.4849 18.0194 10.3051C18.1992 10.1253 18.4283 10.0028 18.6777 9.9532C18.9271 9.90359 19.1857 9.92905 19.4206 10.0264C19.6555 10.1237 19.8563 10.2885 19.9976 10.4999C20.1389 10.7113 20.2143 10.9599 20.2143 11.2142C20.2143 11.5552 20.0788 11.8822 19.8377 12.1233C19.5966 12.3645 19.2696 12.4999 18.9286 12.4999ZM22.7857 6.07135V6.92849C22.7857 7.04216 22.7406 7.15117 22.6602 7.23154C22.5798 7.31191 22.4708 7.35706 22.3571 7.35706H2.64286C2.52919 7.35706 2.42018 7.31191 2.33981 7.23154C2.25944 7.15117 2.21429 7.04216 2.21429 6.92849V5.64278C2.21556 5.18851 2.39658 4.75322 2.71779 4.432C3.03901 4.11079 3.47431 3.92977 3.92857 3.92849H21.0714C21.5257 3.92977 21.961 4.11079 22.2822 4.432C22.6034 4.75322 22.7844 5.18851 22.7857 5.64278V6.07135Z" fill="white"/>
</svg>
