<svg width="23" height="18" viewBox="0 0 23 18" fill="none" xmlns="http://www.w3.org/2000/svg">
<path fill-rule="evenodd" clip-rule="evenodd" d="M3.42308 2.45575C2.91328 2.45575 2.5 2.85988 2.5 3.35841V14.6416C2.5 15.1401 2.91328 15.5442 3.42308 15.5442H19.5769C20.0867 15.5442 20.5 15.1401 20.5 14.6416V3.35841C20.5 2.85988 20.0867 2.45575 19.5769 2.45575H3.42308ZM0.5 3.35841C0.5 1.77975 1.80871 0.5 3.42308 0.5H19.5769C21.1913 0.5 22.5 1.77975 22.5 3.35841V14.6416C22.5 16.2202 21.1913 17.5 19.5769 17.5H3.42308C1.80871 17.5 0.5 16.2202 0.5 14.6416V3.35841ZM3.78749 3.88659C4.12656 3.46029 4.75483 3.38349 5.19078 3.71506L11.4999 8.5136L17.8091 3.71506C18.245 3.38349 18.8733 3.46029 19.2123 3.88659C19.5514 4.31289 19.4729 4.92727 19.0369 5.25884L12.1139 10.5243C11.7527 10.799 11.2471 10.799 10.886 10.5243L3.9629 5.25884C3.52695 4.92727 3.44842 4.31289 3.78749 3.88659Z" fill="#8D191D"/>
</svg>
