<svg width="22" height="18" viewBox="0 0 22 18" fill="none" xmlns="http://www.w3.org/2000/svg">
<path opacity="0.5" fill-rule="evenodd" clip-rule="evenodd" d="M2.92308 2.30762C2.41328 2.30762 2 2.72089 2 3.23069V14.7692C2 15.279 2.41328 15.6922 2.92308 15.6922H19.0769C19.5867 15.6922 20 15.279 20 14.7692V3.23069C20 2.72089 19.5867 2.30762 19.0769 2.30762H2.92308ZM0 3.23069C0 1.61632 1.30871 0.307617 2.92308 0.307617H19.0769C20.6913 0.307617 22 1.61632 22 3.23069V14.7692C22 16.3835 20.6913 17.6922 19.0769 17.6922H2.92308C1.30871 17.6922 0 16.3835 0 14.7692V3.23069ZM3.28749 3.77083C3.62656 3.33488 4.25483 3.25635 4.69078 3.59542L10.9999 8.50252L17.3091 3.59542C17.745 3.25635 18.3733 3.33488 18.7123 3.77083C19.0514 4.20677 18.9729 4.83505 18.5369 5.17412L11.6139 10.5587C11.2527 10.8396 10.7471 10.8396 10.386 10.5587L3.4629 5.17412C3.02695 4.83505 2.94842 4.20677 3.28749 3.77083Z" fill="white"/>
</svg>
