<svg width="24" height="24" viewBox="0 0 24 24" fill="none" xmlns="http://www.w3.org/2000/svg">
<g clip-path="url(#clip0)">
<path d="M13.958 22.5525L13.6841 22.3333H13.3333H10.6667H10.3159L10.042 22.5525L9.7377 22.7959C4.75048 21.7081 1 17.2809 1 12C1 5.95229 5.95229 1 12 1C18.0477 1 23 5.95229 23 12C23 17.2809 19.2495 21.7081 14.2623 22.7959L13.958 22.5525Z" stroke="white" stroke-width="2"/>
<path d="M16.6667 15.3337L17.2 12.0003H14V9.66699C14 8.73366 14.3333 8.00033 15.8 8.00033H17.3333V4.93366C16.4667 4.80033 15.5333 4.66699 14.6667 4.66699C11.9333 4.66699 10 6.33366 10 9.33366V12.0003H7V15.3337H10V23.8003C10.6667 23.9337 11.3333 24.0003 12 24.0003C12.6667 24.0003 13.3333 23.9337 14 23.8003V15.3337H16.6667Z" fill="white"/>
</g>
<defs>
<clipPath id="clip0">
<rect width="24" height="24" fill="white"/>
</clipPath>
</defs>
</svg>
