<svg width="30" height="30" viewBox="0 0 30 30" fill="none" xmlns="http://www.w3.org/2000/svg">
<path d="M19.9998 4.99982C21.3248 5.00378 22.5943 5.53187 23.5312 6.46876C24.4681 7.40566 24.9962 8.67522 25.0002 10.0002V19.9998C24.9962 21.3248 24.4681 22.5943 23.5312 23.5312C22.5943 24.4681 21.3248 24.9962 19.9998 25.0002H10.0002C8.67522 24.9962 7.40566 24.4681 6.46876 23.5312C5.53187 22.5943 5.00378 21.3248 4.99982 19.9998V10.0002C5.00378 8.67522 5.53187 7.40566 6.46876 6.46876C7.40566 5.53187 8.67522 5.00378 10.0002 4.99982H19.9998ZM19.9998 3H10.0002C6.15 3 3 6.15 3 10.0002V19.9998C3 23.85 6.15 27 10.0002 27H19.9998C23.85 27 27 23.85 27 19.9998V10.0002C27 6.15 23.85 3 19.9998 3Z" fill="white"/>
<path d="M21.5 10C21.2033 10 20.9133 9.91203 20.6666 9.74721C20.42 9.58238 20.2277 9.34811 20.1142 9.07403C20.0006 8.79994 19.9709 8.49834 20.0288 8.20737C20.0867 7.91639 20.2296 7.64912 20.4393 7.43934C20.6491 7.22956 20.9164 7.0867 21.2074 7.02882C21.4983 6.97094 21.7999 7.00065 22.074 7.11418C22.3481 7.22771 22.5824 7.41997 22.7472 7.66665C22.912 7.91332 23 8.20333 23 8.5C23.0004 8.6971 22.9619 8.89235 22.8867 9.07453C22.8115 9.25671 22.701 9.42223 22.5616 9.56161C22.4222 9.70098 22.2567 9.81145 22.0745 9.88668C21.8923 9.96191 21.6971 10.0004 21.5 10Z" fill="white"/>
<path d="M15 10.9988C15.7912 10.9988 16.5646 11.2335 17.2224 11.673C17.8802 12.1125 18.3929 12.7373 18.6957 13.4682C18.9984 14.1992 19.0777 15.0035 18.9233 15.7794C18.769 16.5554 18.388 17.2681 17.8286 17.8276C17.2691 18.387 16.5564 18.768 15.7804 18.9223C15.0044 19.0767 14.2001 18.9975 13.4692 18.6947C12.7383 18.3919 12.1135 17.8792 11.674 17.2214C11.2344 16.5636 10.9998 15.7902 10.9998 14.999C11.001 13.9385 11.4228 12.9217 12.1727 12.1717C12.9226 11.4218 13.9394 11 15 10.9988ZM15 8.99902C13.8133 8.99902 12.6533 9.35092 11.6666 10.0102C10.6799 10.6695 9.91085 11.6066 9.45673 12.7029C9.0026 13.7993 8.88378 15.0057 9.11529 16.1696C9.3468 17.3335 9.91825 18.4025 10.7574 19.2417C11.5965 20.0808 12.6656 20.6522 13.8295 20.8837C14.9933 21.1152 16.1997 20.9964 17.2961 20.5423C18.3925 20.0882 19.3295 19.3191 19.9888 18.3324C20.6481 17.3457 21 16.1857 21 14.999C21 13.4077 20.3679 11.8816 19.2426 10.7564C18.1174 9.63116 16.5913 8.99902 15 8.99902Z" fill="white"/>
</svg>
