<svg width="25" height="25" viewBox="0 0 25 25" fill="none" xmlns="http://www.w3.org/2000/svg">
<path d="M23.4904 1.50006C22.1493 0.166648 19.9673 0.166648 18.6262 1.50006C18.2901 1.83431 18.0326 2.22581 17.8615 2.65209C16.5133 1.60896 14.558 1.70216 13.3195 2.9336C12.6685 3.58097 12.3099 4.44201 12.3099 5.35809C12.3099 6.27422 12.6685 7.13522 13.3195 7.78254C13.6765 8.13756 14.0935 8.39709 14.538 8.56305L0.707353 22.3393C0.430875 22.6143 0.430875 23.0619 0.7074 23.3369L1.6245 24.2956C1.89877 24.5683 2.34172 24.5681 2.61571 24.2951L4.74391 22.0826L6.49756 23.8263C6.63465 23.9627 6.81382 24.0307 6.99294 24.0307C7.17351 24.0307 7.35413 23.9615 7.49145 23.8232C7.76507 23.5477 7.76367 23.1025 7.48836 22.8287L7.00502 22.3481L7.87054 21.4875C7.87213 21.4891 7.87344 21.4909 7.87503 21.4925L8.36465 21.9793C8.50174 22.1156 8.68086 22.1837 8.86002 22.1837C9.04064 22.1837 9.22121 22.1144 9.35853 21.9761C9.63216 21.7007 9.63075 21.2554 9.35544 20.9817L7.60329 19.2395L16.426 10.4896C16.5972 10.9097 16.8525 11.2954 17.1845 11.6255C17.855 12.2922 18.7358 12.6255 19.6166 12.6255C20.4973 12.6255 21.3781 12.2922 22.0487 11.6255C22.6997 10.9781 23.0583 10.1171 23.0582 9.20099C23.0582 8.43159 22.8044 7.70163 22.3378 7.10386C22.7576 6.93739 23.1511 6.68639 23.4904 6.349C24.1415 5.70163 24.5 4.84059 24.5 3.9245C24.5 3.00847 24.1414 2.14742 23.4904 1.50006ZM13.7155 5.35814C13.7154 4.81935 13.9267 4.31262 14.3103 3.93121C14.7077 3.53605 15.2296 3.3385 15.7516 3.3385C16.2735 3.3385 16.7956 3.5361 17.1929 3.93116C17.5764 4.31258 17.7877 4.8193 17.7877 5.35809C17.7876 5.89684 17.5764 6.40361 17.1929 6.78498C16.3981 7.57519 15.105 7.57519 14.3103 6.78498C13.9267 6.40366 13.7155 5.89689 13.7155 5.35814ZM21.0578 10.628C20.2631 11.4182 18.97 11.4182 18.1752 10.628C17.7917 10.2466 17.5804 9.73987 17.5804 9.20108C17.5804 8.66234 17.7917 8.15556 18.1752 7.7742C18.5726 7.37909 19.0945 7.18154 19.6165 7.18154C20.1385 7.18154 20.6605 7.37909 21.0578 7.7742C21.4414 8.15556 21.6526 8.66234 21.6526 9.20108C21.6526 9.73983 21.4414 10.2466 21.0578 10.628ZM22.4996 5.35144C21.7049 6.14165 20.4117 6.14165 19.617 5.35144C19.2334 4.97002 19.0222 4.46329 19.0222 3.92455C19.0222 3.3858 19.2334 2.87903 19.617 2.49762C20.0144 2.10246 20.5363 1.90496 21.0583 1.90496C21.5802 1.90496 22.1023 2.10256 22.4996 2.49762C22.8832 2.87903 23.0944 3.38576 23.0944 3.92455C23.0944 4.46329 22.8831 4.97007 22.4996 5.35144Z" fill="white" stroke="white"/>
</svg>
