<svg width="40" height="36" viewBox="0 0 40 36" fill="none" xmlns="http://www.w3.org/2000/svg">
<path d="M37.3595 24.2695L25.7768 23.7769C25.4064 23.748 23.8565 23.6797 23.8565 21.6984C23.8565 19.7853 25.396 19.6632 25.7961 19.619L37.3595 19.1273C38.3775 19.1377 39.283 20.2867 39.283 21.6984C39.283 23.1101 38.3775 24.259 37.3595 24.2695ZM25.9946 13.6903L34.5707 13.021C35.5871 13.021 36.7119 14.3612 36.7119 15.7431V15.7696C36.7119 17.0809 35.8169 18.1495 34.7129 18.1631L25.9994 18.0242C23.8565 17.7614 23.8565 16.4622 23.8565 15.9038C23.8565 14.0655 25.6081 13.7224 25.9946 13.6903ZM33.3253 36L26.1448 35.2825C24.1779 35.2078 23.8565 33.8965 23.8565 33.0746C23.8565 31.5978 24.934 31.0981 25.9994 31.0981L33.3109 30.857C34.4791 30.8755 35.4256 32.0221 35.4256 33.4281C35.4256 34.8342 34.4879 35.9727 33.3253 36ZM36.086 30.2552L25.9303 29.7563C25.1758 29.7057 23.8565 29.5153 23.8565 27.6376C23.8565 26.6734 24.206 25.5799 25.8652 25.4256L36.0844 25.1139C37.1418 25.1251 37.9975 26.1978 37.9975 27.6368C37.9975 29.0758 37.1418 30.2432 36.086 30.2552Z" fill="white"/>
<path d="M10.1636 16.5586C9.97698 16.6605 9.76781 16.7143 9.55511 16.7149C9.76659 16.7143 9.97461 16.6612 10.1604 16.5602L10.1636 16.5586Z" fill="white"/>
<path d="M13.4229 10.9921C11.7758 13.8452 10.9836 15.4071 10.7056 15.9736C10.9844 15.4055 11.7774 13.8436 13.4229 10.9921Z" fill="white"/>
<path d="M10.6282 16.1393L10.7088 15.9781C10.5921 16.225 10.4014 16.4292 10.1631 16.5625C10.35 16.461 10.5096 16.3158 10.6282 16.1393Z" fill="white"/>
<path d="M24.8255 1.65674C24.0678 0.588134 22.812 5.3325e-09 21.2854 5.3325e-09C21.0467 -2.17313e-05 20.8127 0.0664101 20.6097 0.191855C20.4066 0.3173 20.2425 0.496804 20.1357 0.71026C19.8946 1.19796 18.9104 2.63857 17.8707 4.15791C16.4245 6.27343 14.6287 8.90396 13.4332 10.9713L13.4227 10.9897C11.7773 13.8412 10.9842 15.4032 10.7054 15.9712L10.6251 16.1319C10.5061 16.3072 10.3465 16.4511 10.1599 16.5513C9.97476 16.6545 9.76679 16.7097 9.55488 16.712H7.52131C5.71664 16.712 3.98589 17.4289 2.70979 18.705C1.4337 19.9811 0.716797 21.7119 0.716797 23.5165V26.6187C0.716691 27.5123 0.892618 28.3973 1.23453 29.2229C1.57644 30.0486 2.07764 30.7988 2.70951 31.4307C3.34138 32.0627 4.09154 32.564 4.91715 32.906C5.74277 33.248 6.62767 33.424 7.52131 33.424H11.4414C11.7151 33.4251 11.9825 33.5058 12.2111 33.6562C14.0543 34.8598 17.5365 35.9951 21.2854 35.9951C21.884 35.9951 22.4255 35.9838 22.914 35.9646C23.0304 35.9604 23.1435 35.9247 23.2412 35.8613C23.3388 35.7979 23.4175 35.7092 23.4686 35.6045C23.5198 35.4999 23.5415 35.3834 23.5316 35.2673C23.5217 35.1513 23.4804 35.0402 23.4122 34.9458L23.4041 34.9345C22.7156 33.939 22.571 32.8616 22.571 32.1385C22.5698 31.4533 22.7118 30.7754 22.988 30.1483C23.0666 29.9705 23.1073 29.7783 23.1073 29.5839C23.1073 29.3895 23.0666 29.1972 22.988 29.0194C22.7131 28.3799 22.5714 27.6912 22.5714 26.9951C22.5714 26.2991 22.7131 25.6103 22.988 24.9708C23.0662 24.7936 23.1067 24.6021 23.1067 24.4084C23.1067 24.2147 23.0662 24.0231 22.988 23.8459C22.7145 23.2174 22.5733 22.5392 22.5733 21.8538C22.5733 21.1683 22.7145 20.4901 22.988 19.8616C23.0702 19.6758 23.1127 19.475 23.1127 19.2718C23.1127 19.0687 23.0702 18.8678 22.988 18.6821C22.7013 18.0371 22.559 17.3373 22.571 16.6317C22.571 15.9728 22.7316 14.9203 23.2137 14.1257C23.3111 13.9619 23.37 13.7781 23.3859 13.5883C23.4017 13.3984 23.3742 13.2074 23.3053 13.0297C23.2748 12.9494 23.2443 12.8634 23.2145 12.775C23.1183 12.4747 23.0946 12.1559 23.1454 11.8446C23.3865 10.2907 23.9224 8.92887 24.4904 7.49308C24.7379 6.86799 24.9942 6.22201 25.2312 5.54389C25.7245 4.1322 25.5767 2.7157 24.8255 1.65674Z" fill="white"/>
</svg>
