<svg width="16" height="20" viewBox="0 0 16 20" fill="none" xmlns="http://www.w3.org/2000/svg">
<path d="M7.99935 0C4.08891 0 0.916016 2.87991 0.916016 6.42857C0.916016 12.1429 7.99935 20 7.99935 20C7.99935 20 15.0827 12.1429 15.0827 6.42857C15.0827 2.87991 11.9098 0 7.99935 0ZM7.99935 10C7.43897 10 6.89117 9.83243 6.42523 9.51849C5.95929 9.20454 5.59614 8.75831 5.38169 8.23624C5.16724 7.71416 5.11113 7.13969 5.22046 6.58546C5.32978 6.03123 5.59963 5.52213 5.99588 5.12255C6.39213 4.72297 6.89698 4.45086 7.44659 4.34061C7.99621 4.23037 8.56589 4.28695 9.08362 4.5032C9.60134 4.71945 10.0438 5.08566 10.3552 5.55551C10.6665 6.02537 10.8327 6.57777 10.8327 7.14286C10.8319 7.90036 10.5331 8.62661 10.0019 9.16225C9.47074 9.69789 8.75054 9.99917 7.99935 10Z" fill="white"/>
</svg>
