<svg width="8" height="12" viewBox="0 0 8 12" fill="none" xmlns="http://www.w3.org/2000/svg">
<path d="M4 0C1.79175 0 0 1.72795 0 3.85714C0 7.28571 4 12 4 12C4 12 8 7.28571 8 3.85714C8 1.72795 6.20825 0 4 0ZM4 6C3.68355 6 3.37421 5.89946 3.11109 5.71109C2.84797 5.52272 2.64289 5.25499 2.52179 4.94174C2.40069 4.6285 2.36901 4.28381 2.43074 3.95127C2.49248 3.61873 2.64487 3.31328 2.86863 3.07353C3.09239 2.83378 3.37749 2.67051 3.68786 2.60437C3.99823 2.53822 4.31993 2.57217 4.61229 2.70192C4.90465 2.83167 5.15454 3.0514 5.33035 3.33331C5.50616 3.61522 5.6 3.94666 5.6 4.28571C5.59954 4.74022 5.43082 5.17597 5.13086 5.49735C4.8309 5.81873 4.4242 5.9995 4 6Z" fill="#558950"/>
</svg>
