<svg width="24" height="24" viewBox="0 0 24 24" fill="none" xmlns="http://www.w3.org/2000/svg">
<path d="M19.2291 23.9998C18.1833 23.9998 16.7144 23.6216 14.5147 22.3926C11.8399 20.8926 9.77092 19.5078 7.11053 16.8543C4.5455 14.2909 3.29727 12.6313 1.55028 9.4523C-0.423313 5.86297 -0.0868801 3.98152 0.289196 3.1774C0.737058 2.21632 1.39814 1.64149 2.25261 1.07094C2.73795 0.75296 3.25155 0.480375 3.78692 0.256649C3.84049 0.233613 3.89031 0.211648 3.93478 0.191827C4.19996 0.072361 4.60175 -0.108177 5.11068 0.0846825C5.45033 0.212184 5.75355 0.47308 6.2282 0.941836C7.2016 1.90185 8.53179 4.03991 9.02251 5.08992C9.35198 5.79761 9.57002 6.26476 9.57056 6.78869C9.57056 7.40209 9.26198 7.87513 8.88751 8.38568C8.81733 8.48157 8.74769 8.57318 8.68019 8.66211C8.2725 9.19783 8.18304 9.35265 8.24197 9.62908C8.36143 10.1846 9.25234 11.8384 10.7165 13.2993C12.1806 14.7602 13.7867 15.5949 14.3444 15.7138C14.6326 15.7754 14.7906 15.6822 15.3435 15.26C15.4228 15.1995 15.5042 15.1368 15.5894 15.0741C16.1605 14.6493 16.6115 14.3488 17.2105 14.3488H17.2137C17.7349 14.3488 18.1812 14.5749 18.9205 14.9477C19.8848 15.4342 22.0871 16.7472 23.053 17.7217C23.5229 18.1953 23.7848 18.4974 23.9129 18.8365C24.1057 19.3471 23.9241 19.7472 23.8057 20.0151C23.7859 20.0596 23.7639 20.1083 23.7409 20.1624C23.5154 20.6968 23.2412 21.2094 22.9218 21.6935C22.3523 22.5453 21.7753 23.2048 20.8121 23.6532C20.3175 23.8871 19.7762 24.0057 19.2291 23.9998Z" fill="white"/>
</svg>
