<svg width="36" height="32" viewBox="0 0 36 32" fill="none" xmlns="http://www.w3.org/2000/svg">
<path fill-rule="evenodd" clip-rule="evenodd" d="M5.39889 17.318C5.39665 17.3173 5.39442 17.3166 5.39218 17.3159C5.3909 17.3155 5.38962 17.3151 5.38834 17.3147C3.95473 16.8619 2.90195 16.5294 3.00734 15.6849C3.0697 15.1853 3.75472 14.6743 5.06242 14.1519C5.10822 14.1319 5.15394 14.1119 5.19957 14.0919C5.20799 14.0882 5.21641 14.0845 5.22482 14.0809C13.1877 10.5964 18.5035 8.29671 21.1723 7.18172C28.8439 3.97661 30.438 3.41985 31.477 3.40127C31.7055 3.39742 32.2164 3.4543 32.5474 3.72407C32.8269 3.95185 32.9038 4.25955 32.9406 4.47551C32.9774 4.69147 33.0232 5.18343 32.9868 5.56784C32.571 9.9554 30.7722 20.6028 29.8571 25.517C29.4698 27.5963 28.7074 28.2935 27.9692 28.3618C26.6988 28.4792 25.6706 27.7429 24.5261 26.9233C24.2253 26.7079 23.9165 26.4867 23.5931 26.2738C22.3239 25.4382 21.343 24.7672 20.3595 24.0944C19.459 23.4784 18.5563 22.861 17.4283 22.1143C15.0809 20.5605 16.0635 19.609 17.3739 18.3402C17.4406 18.2756 17.5081 18.2101 17.5761 18.1438C17.7244 17.9991 17.8748 17.85 18.0233 17.6951C18.1199 17.5942 18.5928 17.1526 19.2595 16.53C20.4965 15.3749 22.4006 13.5968 23.8064 12.2164C24.374 11.6591 24.8603 11.1667 25.1887 10.8062C25.4533 10.5159 25.6154 10.3112 25.635 10.2272C25.6521 10.1539 25.668 9.88084 25.5064 9.73663C25.3449 9.59242 25.1065 9.64174 24.9345 9.68096C24.8911 9.69085 24.7326 9.78056 24.4589 9.9501C24.1053 10.1691 23.5596 10.5213 22.8217 11.0067C21.3156 11.9974 19.0089 13.543 15.9018 15.6434C15.8257 15.6948 15.7492 15.7466 15.6721 15.7987C14.9212 16.3065 14.1246 16.8459 13.2824 17.4169C12.1799 18.1774 11.1813 18.5479 10.2866 18.5285C9.30029 18.507 7.40299 17.9683 5.99254 17.5077C5.78913 17.4413 5.59063 17.3786 5.39889 17.318ZM13.0566 20.9694C13.1245 21.406 13.2657 21.8482 13.4927 22.2849C14.0362 23.3305 14.9391 24.0755 15.7775 24.6305C16.8862 25.3643 17.7724 25.9705 18.6744 26.5875L18.7954 26.6703C19.74 27.3164 20.7094 27.9782 21.9484 28.794C22.2185 28.9719 22.4719 29.1532 22.7708 29.3672C22.8347 29.4129 22.9007 29.4601 22.9694 29.5091C23.3299 29.7664 23.7706 30.0767 24.2426 30.3553C25.2039 30.9225 26.5569 31.5184 28.2441 31.3625C31.1325 31.0955 32.3652 28.4375 32.8059 26.0711C33.7191 21.1675 35.543 10.3944 35.9733 5.85334C36.0422 5.12626 35.9637 4.35493 35.8976 3.96718C35.8288 3.56325 35.593 2.32573 34.4377 1.3841C33.7956 0.860728 33.1102 0.634635 32.6712 0.529231C32.213 0.419208 31.7759 0.382415 31.4267 0.388293L31.4236 0.388349C30.3653 0.407274 29.3001 0.712913 27.7885 1.2639C26.2253 1.8337 23.8451 2.80141 20.0202 4.39941C17.311 5.53127 11.9322 7.85863 3.9065 11.3708C3.16081 11.6713 2.40878 12.0381 1.77922 12.5077C1.21463 12.9289 0.215562 13.8284 0.0306325 15.3101C-0.104481 16.3927 0.214129 17.4082 0.8529 18.1968C1.39614 18.8675 2.06607 19.2459 2.49847 19.4562C3.13587 19.7664 4.00179 20.0382 4.64477 20.24C4.8 20.2888 4.94223 20.3334 5.06512 20.3735C5.81145 20.6172 6.70772 20.8887 7.56894 21.1057C8.36054 21.3051 9.36445 21.5225 10.2218 21.5411C11.2194 21.5628 12.1699 21.3394 13.0566 20.9694ZM5.0857 14.0172C5.08611 14.0171 5.09364 14.0208 5.10706 14.0288C5.092 14.0213 5.08529 14.0173 5.0857 14.0172ZM5.35653 17.3462C5.3569 17.3459 5.3574 17.3455 5.35803 17.3451C5.35491 17.3475 5.3543 17.3478 5.35653 17.3462Z" fill="#8D191D"/>
</svg>
