<svg width="24" height="22" viewBox="0 0 24 22" fill="none" xmlns="http://www.w3.org/2000/svg">
<path opacity="0.5" fill-rule="evenodd" clip-rule="evenodd" d="M3.59926 11.9539C3.59777 11.9534 3.59628 11.9529 3.59479 11.9525C3.59394 11.9522 3.59308 11.9519 3.59223 11.9517C2.63648 11.6498 1.93463 11.4281 2.00489 10.8652C2.04647 10.532 2.50315 10.1914 3.37494 9.84315C3.40548 9.82978 3.43596 9.81645 3.46638 9.80314C3.47199 9.80068 3.4776 9.79822 3.48322 9.79577C8.79181 7.47281 12.3357 5.93967 14.1149 5.19634C19.2293 3.0596 20.292 2.68843 20.9847 2.67604C21.137 2.67347 21.4776 2.7114 21.6983 2.89124C21.8846 3.04309 21.9359 3.24823 21.9604 3.3922C21.9849 3.53617 22.0155 3.86415 21.9912 4.12042C21.714 7.04546 20.5148 14.1438 19.9047 17.4199C19.6466 18.8061 19.1382 19.2709 18.6461 19.3164C17.7992 19.3947 17.1137 18.9038 16.3507 18.3574C16.1502 18.2138 15.9443 18.0664 15.7287 17.9244C14.8826 17.3673 14.2287 16.92 13.573 16.4715C12.9726 16.0608 12.3709 15.6492 11.6188 15.1514C10.0539 14.1155 10.709 13.4812 11.5826 12.6353C11.627 12.5922 11.6721 12.5486 11.7174 12.5044C11.8163 12.4079 11.9165 12.3085 12.0155 12.2053C12.08 12.138 12.3952 11.8436 12.8397 11.4286C13.6643 10.6585 14.9337 9.47306 15.8709 8.55281C16.2493 8.18129 16.5735 7.85298 16.7925 7.61267C16.9688 7.41912 17.0769 7.28266 17.09 7.22667C17.1014 7.17782 17.112 6.99575 17.0043 6.89962C16.8966 6.80348 16.7377 6.83635 16.623 6.8625C16.5941 6.86909 16.4884 6.9289 16.3059 7.04192C16.0702 7.18792 15.7064 7.42272 15.2144 7.74631C14.2104 8.40678 12.6726 9.43717 10.6012 10.8375C10.5505 10.8717 10.4994 10.9062 10.4481 10.941C9.94743 11.2795 9.41638 11.6391 8.85492 12.0198C8.11994 12.5268 7.45422 12.7738 6.85775 12.7608C6.2002 12.7466 4.93533 12.3874 3.99502 12.0804C3.85942 12.0361 3.72709 11.9943 3.59926 11.9539ZM8.70442 14.3881C8.74968 14.6792 8.84379 14.974 8.99515 15.2652C9.35747 15.9622 9.95937 16.4588 10.5183 16.8288C11.2575 17.3181 11.8482 17.7222 12.4496 18.1335L12.5303 18.1887C13.16 18.6194 13.8063 19.0607 14.6323 19.6045C14.8123 19.7231 14.9813 19.844 15.1805 19.9867C15.2231 20.0171 15.2671 20.0486 15.3129 20.0813C15.5532 20.2528 15.8471 20.4597 16.1618 20.6454C16.8026 21.0235 17.7046 21.4208 18.8294 21.3169C20.755 21.1389 21.5768 19.3668 21.8706 17.7892C22.4794 14.5202 23.6953 7.3381 23.9822 4.31076C24.0281 3.82604 23.9758 3.31182 23.9317 3.05332C23.8858 2.78403 23.7287 1.95902 22.9585 1.33126C22.5304 0.982347 22.0735 0.831619 21.7808 0.761349C21.4753 0.688001 21.1839 0.663472 20.9511 0.667391L20.9491 0.667428C20.2435 0.680045 19.5334 0.883804 18.5257 1.25113C17.4835 1.631 15.8967 2.27613 13.3468 3.34147C11.5407 4.09604 7.95479 5.64762 2.60433 7.98907C2.1072 8.18942 1.60586 8.43392 1.18615 8.74701C0.809754 9.02779 0.143708 9.62745 0.0204217 10.6153C-0.0696541 11.337 0.142753 12.014 0.5686 12.5397C0.930759 12.9869 1.37738 13.2391 1.66565 13.3794C2.09058 13.5861 2.66786 13.7673 3.09652 13.9019C3.2 13.9344 3.29482 13.9641 3.37675 13.9909C3.8743 14.1533 4.47181 14.3344 5.04596 14.479C5.57369 14.6119 6.24297 14.7569 6.81455 14.7693C7.47963 14.7837 8.11325 14.6348 8.70442 14.3881ZM3.39047 9.75332C3.39074 9.75324 3.39576 9.75574 3.40471 9.76107C3.39466 9.75606 3.39019 9.7534 3.39047 9.75332ZM3.57102 11.9726C3.57127 11.9725 3.5716 11.9722 3.57202 11.9719C3.56994 11.9735 3.56953 11.9737 3.57102 11.9726Z" fill="white"/>
</svg>
