<svg width="25" height="25" viewBox="0 0 25 25" fill="none" xmlns="http://www.w3.org/2000/svg">
<path d="M7.47234 6.177C7.38703 6.1696 7.32304 6.16589 7.28038 6.16589H5.68077V9.09368H7.28038C7.33288 9.09368 7.39687 9.08998 7.47234 9.08257C7.55109 9.07516 7.63476 9.05849 7.72335 9.03257C8.02523 8.94738 8.24507 8.78071 8.38289 8.53257C8.52398 8.28071 8.59453 7.98812 8.59453 7.65479C8.59453 7.34738 8.5289 7.05293 8.39765 6.77145C8.2664 6.48626 8.04164 6.30293 7.72335 6.22145C7.64132 6.19552 7.55765 6.18071 7.47234 6.177Z" fill="white"/>
<path fill-rule="evenodd" clip-rule="evenodd" d="M19.3572 2.64286V21.0715C19.3581 21.8233 19.6057 22.5541 20.062 23.1517C20.5183 23.7493 21.158 24.1806 21.8831 24.3795C21.8961 24.383 21.9077 24.3906 21.9159 24.4012C21.9241 24.4119 21.9286 24.425 21.9286 24.4385C21.9287 24.4466 21.9272 24.4546 21.9241 24.4621C21.921 24.4696 21.9165 24.4764 21.9107 24.4822C21.905 24.4879 21.8982 24.4924 21.8907 24.4955C21.8832 24.4986 21.8751 24.5001 21.867 24.5001H3.50001C2.70436 24.5001 1.94129 24.184 1.37868 23.6214C0.816071 23.0588 0.5 22.2957 0.5 21.5001V2.64286C0.5 2.07454 0.725765 1.52949 1.12763 1.12763C1.5295 0.725765 2.07454 0.5 2.64286 0.5H17.2143C17.4957 0.5 17.7744 0.555427 18.0344 0.663116C18.2944 0.770805 18.5306 0.928647 18.7296 1.12763C18.9286 1.32661 19.0864 1.56284 19.1941 1.82282C19.3018 2.08281 19.3572 2.36146 19.3572 2.64286ZM15.0715 20.2143H4.80983C4.34858 20.2143 3.95269 19.8597 3.92965 19.3984C3.92407 19.2825 3.94207 19.1667 3.98257 19.058C4.02308 18.9493 4.08523 18.8499 4.16527 18.7659C4.24531 18.6819 4.34158 18.615 4.44823 18.5693C4.55488 18.5236 4.6697 18.5001 4.78573 18.5H15.0474C15.5086 18.5 15.9045 18.8547 15.9275 19.3159C15.9331 19.4318 15.9151 19.5477 15.8746 19.6564C15.8341 19.7651 15.772 19.8645 15.6919 19.9485C15.6119 20.0325 15.5156 20.0994 15.409 20.1451C15.3023 20.1908 15.1875 20.2143 15.0715 20.2143ZM15.0715 16.7858H4.80983C4.34858 16.7858 3.95269 16.4311 3.92965 15.9699C3.92407 15.854 3.94207 15.7381 3.98257 15.6294C4.02308 15.5207 4.08523 15.4213 4.16527 15.3373C4.24531 15.2533 4.34158 15.1864 4.44823 15.1407C4.55488 15.095 4.6697 15.0715 4.78573 15.0715H15.0474C15.5086 15.0715 15.9045 15.4261 15.9275 15.8874C15.9331 16.0033 15.9151 16.1191 15.8746 16.2278C15.8341 16.3365 15.772 16.4359 15.6919 16.5199C15.6119 16.6039 15.5156 16.6708 15.409 16.7165C15.3023 16.7622 15.1875 16.7857 15.0715 16.7858ZM15.0715 13.3572H11.667C11.2057 13.3572 10.8099 13.0025 10.7868 12.5413C10.7812 12.4254 10.7992 12.3096 10.8397 12.2008C10.8802 12.0921 10.9424 11.9927 11.0224 11.9087C11.1025 11.8247 11.1987 11.7579 11.3054 11.7122C11.412 11.6665 11.5269 11.6429 11.6429 11.6429H15.0474C15.5086 11.6429 15.9045 11.9975 15.9275 12.4588C15.9331 12.5747 15.9151 12.6905 15.8746 12.7992C15.8341 12.908 15.772 13.0073 15.6919 13.0913C15.6119 13.1753 15.5156 13.2422 15.409 13.2879C15.3023 13.3336 15.1875 13.3572 15.0715 13.3572ZM15.0715 9.9286H11.667C11.2057 9.9286 10.8099 9.57395 10.7868 9.1127C10.7812 8.99681 10.7992 8.88099 10.8397 8.77225C10.8802 8.66352 10.9424 8.56415 11.0224 8.48015C11.1025 8.39615 11.1987 8.32928 11.3054 8.28358C11.412 8.23788 11.5269 8.21432 11.6429 8.21431H15.0474C15.5086 8.21431 15.9045 8.56895 15.9275 9.0302C15.9331 9.14609 15.9151 9.26192 15.8746 9.37065C15.8341 9.47938 15.772 9.57875 15.6919 9.66275C15.6119 9.74675 15.5156 9.81362 15.409 9.85932C15.3023 9.90502 15.1875 9.92859 15.0715 9.9286ZM15.0715 6.50002H11.667C11.2057 6.50002 10.8099 6.14537 10.7868 5.68412C10.7812 5.56823 10.7992 5.45241 10.8397 5.34368C10.8802 5.23494 10.9424 5.13557 11.0224 5.05157C11.1025 4.96757 11.1987 4.9007 11.3054 4.855C11.412 4.8093 11.5269 4.78574 11.6429 4.78573H15.0474C15.5086 4.78573 15.9045 5.14037 15.9275 5.60162C15.9331 5.71751 15.9151 5.83334 15.8746 5.94207C15.8341 6.0508 15.772 6.15017 15.6919 6.23417C15.6119 6.31817 15.5156 6.38505 15.409 6.43074C15.3023 6.47644 15.1875 6.50001 15.0715 6.50002ZM4.39525 11.8937C4.13752 11.8937 3.92858 11.6848 3.92858 11.427C3.92858 11.1693 4.13752 10.9604 4.39525 10.9604H4.6521V10.0992H4.43136C4.15369 10.0992 3.92858 9.87414 3.92858 9.59646C3.92858 9.31878 4.15369 9.09368 4.43136 9.09368H4.6521V5.64287C4.6521 5.32728 4.90794 5.07144 5.22353 5.07144H7.31976C7.35914 5.07144 7.42804 5.07515 7.52648 5.08255C7.6282 5.08626 7.73976 5.09737 7.86117 5.11589C8.45835 5.21959 8.90461 5.50478 9.19992 5.97145C9.49523 6.43441 9.64289 6.98626 9.64289 7.62701C9.64289 8.27516 9.49359 8.81775 9.195 9.25479C8.8964 9.68813 8.45179 9.95479 7.86117 10.0548C7.73976 10.077 7.6282 10.09 7.52648 10.0937C7.42804 10.0974 7.35914 10.0992 7.31976 10.0992H5.68077V10.9604H7.53231C7.79005 10.9604 7.99898 11.1693 7.99898 11.427C7.99898 11.6848 7.79004 11.8937 7.53231 11.8937H5.68077V12.5571C5.68077 12.8412 5.4505 13.0715 5.16644 13.0715C4.88238 13.0715 4.6521 12.8412 4.6521 12.5571V11.8937H4.39525Z" fill="white"/>
<path d="M21.0762 4.78604H22.3523C22.9219 4.78604 23.4682 5.01232 23.871 5.41509C24.2737 5.81785 24.5 6.36413 24.5 6.93373V21.0718C24.5 21.5265 24.3194 21.9625 23.9979 22.284C23.6764 22.6055 23.2404 22.7861 22.7857 22.7861C22.3311 22.7861 21.895 22.6055 21.5735 22.284C21.252 21.9625 21.0714 21.5265 21.0714 21.0718V4.79086L21.0728 4.78746L21.0762 4.78604Z" fill="white"/>
</svg>
