<svg width="36" height="34" viewBox="0 0 36 34" fill="none" xmlns="http://www.w3.org/2000/svg">
<path fill-rule="evenodd" clip-rule="evenodd" d="M9.96838 5.42626H30.8569C31.1572 5.42612 31.4573 5.44518 31.7553 5.48332C31.6543 4.77438 31.4108 4.09325 31.0394 3.48097C30.6681 2.86869 30.1766 2.33796 29.5945 1.92077C29.0125 1.50357 28.3521 1.20857 27.653 1.05353C26.9539 0.898491 26.2306 0.886634 25.5268 1.01867L5.24545 4.48123C4.95596 4.52525 4.66304 4.57435 4.36976 4.62912H4.35509C4.24495 4.65018 4.13582 4.67467 4.02784 4.70249C0.941767 5.45624 0.0400216 8.2418 0.0400216 9.92572V11.8661C0.0137259 12.0757 0.000233133 12.2878 0 12.5013V27.9299C0.0014889 29.2934 0.543802 30.6006 1.50795 31.5648C2.4721 32.5289 3.77934 33.0713 5.14286 33.0727H30.8571C32.2207 33.0713 33.5279 32.5289 34.492 31.5648C35.4562 30.6006 35.9985 29.2934 36 27.9299V12.5013C35.9985 11.1378 35.4562 9.83056 34.492 8.86641C33.5279 7.90226 32.2207 7.35994 30.8571 7.35845H10.4411C10.4048 7.35571 10.3664 7.35429 10.3257 7.35429C8.96624 7.35429 8.8164 5.70783 9.96838 5.42626ZM27.0402 22.787C26.5316 22.787 26.0344 22.6362 25.6116 22.3537C25.1887 22.0711 24.8591 21.6695 24.6645 21.1996C24.4699 20.7298 24.4189 20.2127 24.5182 19.7139C24.6174 19.2151 24.8623 18.7569 25.2219 18.3973C25.5815 18.0377 26.0397 17.7928 26.5385 17.6936C27.0373 17.5944 27.5544 17.6453 28.0242 17.8399C28.4941 18.0345 28.8957 18.3641 29.1782 18.787C29.4608 19.2099 29.6116 19.707 29.6116 20.2156C29.6116 20.8976 29.3407 21.5516 28.8585 22.0339C28.3762 22.5161 27.7222 22.787 27.0402 22.787Z" fill="white"/>
</svg>
