<svg width="24" height="22" viewBox="0 0 24 22" fill="none" xmlns="http://www.w3.org/2000/svg">
<path d="M7.50002 1.24951L7.94723 0.355085C7.63724 0.20009 7.2691 0.216654 6.97429 0.398861C6.67947 0.581068 6.50002 0.902934 6.50002 1.24951L7.50002 1.24951ZM9.00002 1.99951L8.5528 2.89394C8.83433 3.0347 9.1657 3.0347 9.44723 2.89394L9.00002 1.99951ZM10.5 1.24951L10.9479 0.355421C10.6662 0.214327 10.3346 0.214203 10.0528 0.355085L10.5 1.24951ZM11.9972 1.99951L11.5493 2.8936C11.8295 3.03397 12.1594 3.03485 12.4403 2.89598L11.9972 1.99951ZM13.5145 1.24951L13.9652 0.356838C13.6845 0.215083 13.3534 0.213678 13.0714 0.353045L13.5145 1.24951ZM15 1.99951L14.5493 2.89219C14.8323 3.03509 15.1664 3.0353 15.4496 2.89276L15 1.99951ZM16.4902 1.24951L16.9382 0.355477C16.6557 0.213912 16.3229 0.214205 16.0406 0.356268L16.4902 1.24951ZM17.9869 1.99951L17.5389 2.89355C17.8195 3.03415 18.1498 3.03487 18.431 2.89549L17.9869 1.99951ZM19.5 1.24951L19.9471 0.355029C19.6667 0.214866 19.3368 0.214314 19.0559 0.353536L19.5 1.24951ZM21.0005 1.99951L20.5534 2.89399C20.8349 3.03472 21.1663 3.03468 21.4478 2.89388L21.0005 1.99951ZM22.5 1.24951L23.5 1.24951C23.5 0.902911 23.3205 0.581028 23.0257 0.398828C22.7308 0.216628 22.3627 0.200098 22.0527 0.35514L22.5 1.24951ZM22.5 17.0003H23.5V17.0003L22.5 17.0003ZM18.75 20.7503V19.7503V20.7503ZM15 14.7503H16C16 14.198 15.5523 13.7503 15 13.7503V14.7503ZM2.25003 14.7503L2.24116 15.7503H2.25003V14.7503ZM1.50003 15.5003H2.50007L2.49999 15.4914L1.50003 15.5003ZM10.4999 4.74984C9.94765 4.74984 9.49993 5.19756 9.49993 5.74984C9.49993 6.30213 9.94765 6.74984 10.4999 6.74984V4.74984ZM19.4999 6.74984C20.0522 6.74984 20.4999 6.30213 20.4999 5.74984C20.4999 5.19756 20.0522 4.74984 19.4999 4.74984V6.74984ZM13.5 8.49915C12.9477 8.49915 12.5 8.94686 12.5 9.49915C12.5 10.0514 12.9477 10.4991 13.5 10.4991V8.49915ZM19.5 10.4991C20.0523 10.4991 20.5 10.0514 20.5 9.49915C20.5 8.94686 20.0523 8.49915 19.5 8.49915V10.4991ZM8.50002 14.7495V1.24951H6.50002V14.7495H8.50002ZM7.0528 2.14394L8.5528 2.89394L9.44723 1.10508L7.94723 0.355085L7.0528 2.14394ZM9.44723 2.89394L10.9472 2.14394L10.0528 0.355085L8.5528 1.10508L9.44723 2.89394ZM10.0521 2.1436L11.5493 2.8936L12.4451 1.10542L10.9479 0.355421L10.0521 2.1436ZM12.4403 2.89598L13.9577 2.14598L13.0714 0.353045L11.5541 1.10304L12.4403 2.89598ZM13.0638 2.14219L14.5493 2.89219L15.4507 1.10684L13.9652 0.356838L13.0638 2.14219ZM15.4496 2.89276L16.9397 2.14276L16.0406 0.356268L14.5504 1.10627L15.4496 2.89276ZM16.0422 2.14355L17.5389 2.89355L18.4349 1.10548L16.9382 0.355477L16.0422 2.14355ZM18.431 2.89549L19.9441 2.14549L19.0559 0.353536L17.5428 1.10354L18.431 2.89549ZM19.0529 2.14399L20.5534 2.89399L21.4476 1.10503L19.9471 0.355029L19.0529 2.14399ZM21.4478 2.89388L22.9473 2.14388L22.0527 0.35514L20.5532 1.10514L21.4478 2.89388ZM21.5 17.0003C21.5 17.7296 21.2103 18.4291 20.6946 18.9448L22.1088 20.359C22.9996 19.4682 23.5 18.2601 23.5 17.0003H21.5ZM20.6946 18.9448C20.1788 19.4606 19.4794 19.7503 18.75 19.7503V21.7503C20.0098 21.7503 21.218 21.2498 22.1088 20.359L20.6946 18.9448ZM18.75 19.7503C18.0207 19.7503 17.3212 19.4606 16.8055 18.9448L15.3913 20.359C16.2821 21.2498 17.4902 21.7503 18.75 21.7503V19.7503ZM16.8055 18.9448C16.2898 18.4291 16 17.7296 16 17.0003H14C14 18.2601 14.5005 19.4682 15.3913 20.359L16.8055 18.9448ZM16 17.0003V14.7503H14V17.0003H16ZM15 13.7503H2.25003V15.7503H15V13.7503ZM2.2589 13.7503C2.02736 13.7483 1.79772 13.7924 1.5834 13.88L2.34057 15.7312C2.30903 15.7441 2.27523 15.7505 2.24116 15.7502L2.2589 13.7503ZM1.5834 13.88C1.36908 13.9677 1.17437 14.0972 1.01064 14.2609L2.42485 15.6751C2.40076 15.6992 2.37211 15.7183 2.34057 15.7312L1.5834 13.88ZM1.01064 14.2609C0.846907 14.4246 0.717431 14.6193 0.629769 14.8337L2.4809 15.5908C2.468 15.6224 2.44895 15.651 2.42485 15.6751L1.01064 14.2609ZM0.629769 14.8337C0.542107 15.048 0.498015 15.2776 0.500069 15.5091L2.49999 15.4914C2.50029 15.5255 2.4938 15.5593 2.4809 15.5908L0.629769 14.8337ZM0.500029 15.5003C0.500029 16.968 0.561516 18.5341 1.20813 19.7269C1.55214 20.3614 2.05752 20.8888 2.76598 21.2452C3.45849 21.5935 4.28828 21.7503 5.25003 21.7503V19.7503C4.49475 19.7503 3.99727 19.6258 3.66471 19.4585C3.3481 19.2992 3.13061 19.0766 2.96638 18.7737C2.59651 18.0914 2.50003 17.0326 2.50003 15.5003H0.500029ZM5.25003 21.7503H18.75V19.7503H5.25003V21.7503ZM10.4999 6.74984H19.4999V4.74984H10.4999V6.74984ZM13.5 10.4991H19.5V8.49915H13.5V10.4991ZM21.5 1.24951L21.5 17.0003L23.5 17.0003L23.5 1.24951L21.5 1.24951Z" fill="white"/>
</svg>
